<svg width="1643" height="480" viewBox="0 0 1643 480" fill="none" xmlns="http://www.w3.org/2000/svg">
    <circle cx="299.997" cy="473.72" r="5.74522" transform="rotate(90 299.997 473.72)" fill="white"/>
    <circle cx="427.442" cy="289.905" r="5.74522" transform="rotate(90 427.442 289.905)" fill="white"/>
    <circle cx="256.052" cy="44.4269" r="5.74522" transform="rotate(90 256.052 44.4269)" fill="white"/>
    <circle cx="325.067" cy="353.593" r="5.74522" transform="rotate(90 325.067 353.593)" fill="white"/>
    <circle cx="76.4579" cy="5.74522" r="5.74522" transform="rotate(90 76.4579 5.74522)" fill="white"/>
    <circle cx="308.876" cy="183.846" r="4.17834" transform="rotate(90 308.876 183.846)" fill="white"/>
    <circle cx="6.47353" cy="126.95" r="5.74522" transform="rotate(90 6.47353 126.95)" fill="white"/>
    <circle cx="164.65" cy="426.223" r="4.17834" transform="rotate(90 164.65 426.223)" fill="white"/>
    <circle cx="1189.5" cy="286.5" r="5.5" transform="rotate(-180 1189.5 286.5)" fill="white"/>
    <circle cx="1365.47" cy="408.5" r="5.5" transform="rotate(-180 1365.47 408.5)" fill="white"/>
    <circle cx="1600.47" cy="244.432" r="5.5" transform="rotate(-180 1600.47 244.432)" fill="white"/>
    <circle cx="1304.5" cy="310.5" r="5.5" transform="rotate(-180 1304.5 310.5)" fill="white"/>
    <circle cx="1637.5" cy="72.5" r="5.5" transform="rotate(-180 1637.5 72.5)" fill="white"/>
    <circle cx="1467" cy="295" r="4" transform="rotate(-180 1467 295)" fill="white"/>
    <circle cx="1521.47" cy="5.5" r="5.5" transform="rotate(-180 1521.47 5.5)" fill="white"/>
    <circle cx="1234.97" cy="156.932" r="4" transform="rotate(-180 1234.97 156.932)" fill="white"/>
</svg>
