<svg width="274" height="93" viewBox="0 0 274 93" fill="none" xmlns="http://www.w3.org/2000/svg">
    <g filter="url(#filter0_d_2562_261)">
        <path d="M36.9297 41.0234V47H36.2266C35.1458 47 34.2344 46.8698 33.4922 46.6094C32.75 46.349 32.138 45.9974 31.6562 45.5547C31.1875 45.112 30.8294 44.6042 30.582 44.0312C30.3346 43.4453 30.1719 42.8398 30.0938 42.2148C29.8333 42.5404 29.5859 42.8333 29.3516 43.0938C29.1562 43.3151 28.9609 43.5299 28.7656 43.7383C28.5703 43.9466 28.4401 44.0833 28.375 44.1484C28.3359 44.1875 28.2122 44.2201 28.0039 44.2461C27.7956 44.2721 27.5352 44.2982 27.2227 44.3242C26.9232 44.3372 26.5911 44.3438 26.2266 44.3438C25.875 44.3438 25.5234 44.3372 25.1719 44.3242C24.8333 44.3112 24.5143 44.2917 24.2148 44.2656C23.9284 44.2396 23.694 44.2005 23.5117 44.1484C22.9648 44.0312 22.4766 43.6667 22.0469 43.0547C21.6302 42.4297 21.3112 41.6875 21.0898 40.8281C20.8685 39.9688 20.7643 39.0573 20.7773 38.0938C20.7904 37.1302 20.9596 36.2448 21.2852 35.4375C21.4023 35.1771 21.6172 34.8711 21.9297 34.5195C22.2422 34.1549 22.6198 33.7773 23.0625 33.3867C23.5052 32.9831 23.987 32.5794 24.5078 32.1758C25.0417 31.7591 25.569 31.3555 26.0898 30.9648C26.6107 30.5742 27.112 30.2096 27.5938 29.8711C28.0755 29.5326 28.4922 29.2396 28.8438 28.9922C28.8177 28.875 28.7982 28.7122 28.7852 28.5039C28.7721 28.2956 28.7526 28.0872 28.7266 27.8789C28.7005 27.6445 28.681 27.3841 28.668 27.0977C28.7461 27.0195 28.8893 26.8958 29.0977 26.7266C29.306 26.5443 29.5469 26.349 29.8203 26.1406C30.0938 25.9193 30.3802 25.6979 30.6797 25.4766C30.9792 25.2552 31.2526 25.0599 31.5 24.8906C31.7604 24.7083 31.9688 24.5716 32.125 24.4805C32.2943 24.3763 32.3854 24.3438 32.3984 24.3828C32.4505 24.7865 32.4961 25.2943 32.5352 25.9062C32.5872 26.5052 32.6328 27.1628 32.6719 27.8789C32.7109 28.582 32.75 29.3177 32.7891 30.0859C32.8281 30.8542 32.8607 31.6029 32.8867 32.332C32.9258 33.0482 32.9583 33.7253 32.9844 34.3633C33.0104 35.0013 33.043 35.5482 33.082 36.0039C33.1602 37.1367 33.3099 38.0352 33.5312 38.6992C33.7526 39.3503 34.0195 39.8451 34.332 40.1836C34.6576 40.5221 35.0156 40.7435 35.4062 40.8477C35.7969 40.9518 36.2005 41.0104 36.6172 41.0234H36.9297ZM22.7891 37.3516C22.8151 37.7292 22.9518 38.0482 23.1992 38.3086C23.4466 38.556 23.7656 38.7578 24.1562 38.9141C24.5599 39.0573 25.0091 39.168 25.5039 39.2461C25.9987 39.3112 26.4935 39.3503 26.9883 39.3633C27.4961 39.3633 27.9844 39.3503 28.4531 39.3242C28.9349 39.2852 29.3581 39.2396 29.7227 39.1875C29.6315 38.5495 29.5599 37.957 29.5078 37.4102C29.4557 36.8633 29.4102 36.349 29.3711 35.8672C29.3451 35.3724 29.3125 34.9036 29.2734 34.4609C29.2474 34.0052 29.2083 33.5495 29.1562 33.0938C28.388 33.4323 27.6198 33.8034 26.8516 34.207C26.0833 34.6107 25.3867 35.0143 24.7617 35.418C24.1497 35.8216 23.6549 36.1992 23.2773 36.5508C22.9128 36.8893 22.75 37.1562 22.7891 37.3516ZM44.1758 33.6211C44.4622 33.6211 44.6901 33.6992 44.8594 33.8555C45.0417 34.0117 45.1784 34.2005 45.2695 34.4219C45.3607 34.6302 45.4193 34.8516 45.4453 35.0859C45.4844 35.3073 45.5039 35.4896 45.5039 35.6328C45.5039 36.5964 45.6211 37.4232 45.8555 38.1133C46.0898 38.7904 46.4349 39.3438 46.8906 39.7734C47.3594 40.2031 47.9323 40.5221 48.6094 40.7305C49.2995 40.9258 50.0872 41.0234 50.9727 41.0234H51.2852V47H50.9336C50.1133 47 49.3451 46.9219 48.6289 46.7656C47.9128 46.5964 47.2617 46.3685 46.6758 46.082C46.1029 45.7956 45.6016 45.457 45.1719 45.0664C44.7422 44.6628 44.4102 44.2266 44.1758 43.7578C43.7201 44.5 43.2057 45.0859 42.6328 45.5156C42.0729 45.9453 41.5 46.2708 40.9141 46.4922C40.3281 46.7135 39.7487 46.8568 39.1758 46.9219C38.6159 46.974 38.1146 47 37.6719 47H36.5977V41.0234H37.0664C37.7695 41.0234 38.4596 40.9258 39.1367 40.7305C39.8268 40.5352 40.4453 40.2227 40.9922 39.793C41.5391 39.3633 41.9753 38.8099 42.3008 38.1328C42.6393 37.4557 42.8086 36.6289 42.8086 35.6523C42.8086 35.4961 42.8281 35.3008 42.8672 35.0664C42.9062 34.832 42.9714 34.6107 43.0625 34.4023C43.1667 34.181 43.3034 33.9987 43.4727 33.8555C43.6549 33.6992 43.8893 33.6211 44.1758 33.6211ZM33.6094 44.0312C33.6094 43.6146 33.6875 43.224 33.8438 42.8594C34 42.4948 34.2148 42.1758 34.4883 41.9023C34.7487 41.6289 35.0612 41.4141 35.4258 41.2578C35.7773 41.1016 36.1615 41.0234 36.5781 41.0234C36.9948 41.0234 37.3854 41.1016 37.75 41.2578C38.1146 41.4141 38.4336 41.6289 38.707 41.9023C38.9805 42.1758 39.1953 42.4948 39.3516 42.8594C39.5078 43.224 39.5859 43.6146 39.5859 44.0312C39.5859 44.4479 39.5078 44.8385 39.3516 45.2031C39.1953 45.5547 38.9805 45.8672 38.707 46.1406C38.4336 46.401 38.1146 46.6094 37.75 46.7656C37.3854 46.9219 36.9948 47 36.5781 47C36.1615 47 35.7773 46.9219 35.4258 46.7656C35.0612 46.6094 34.7487 46.401 34.4883 46.1406C34.2148 45.8672 34 45.5547 33.8438 45.2031C33.6875 44.8385 33.6094 44.4479 33.6094 44.0312ZM38.7461 28.1719L41.793 25.125L44.8203 28.1719L41.793 31.1992L38.7461 28.1719ZM43.9805 28.1719L47.0273 25.125L50.0547 28.1719L47.0273 31.1992L43.9805 28.1719ZM53.4531 20.2227C53.5443 20.1055 53.7135 19.9362 53.9609 19.7148C54.2214 19.4935 54.5143 19.2526 54.8398 18.9922C55.1784 18.7188 55.5234 18.4518 55.875 18.1914C56.2266 17.918 56.5521 17.6836 56.8516 17.4883C57.151 17.293 57.3984 17.1497 57.5938 17.0586C57.7891 16.9674 57.8867 16.9674 57.8867 17.0586C57.9128 17.8919 57.9453 18.8359 57.9844 19.8906C58.0365 20.9323 58.082 22.0391 58.1211 23.2109C58.1732 24.3698 58.2188 25.5677 58.2578 26.8047C58.3099 28.0417 58.3555 29.2721 58.3945 30.4961C58.4336 31.7201 58.4661 32.9115 58.4922 34.0703C58.5312 35.2161 58.5638 36.2904 58.5898 37.293C58.6159 38.9466 58.4466 40.3854 58.082 41.6094C57.7174 42.8203 57.2227 43.8294 56.5977 44.6367C55.9727 45.431 55.2435 46.0234 54.4102 46.4141C53.5768 46.8047 52.7044 47 51.793 47H50.9922L51.0117 41.0234H51.2852C51.3633 41.0234 51.4479 41.0234 51.5391 41.0234C51.6302 41.0104 51.7279 40.9974 51.832 40.9844C52.4831 40.8932 53.0169 40.776 53.4336 40.6328C53.8503 40.4766 54.1758 40.2747 54.4102 40.0273C54.6445 39.7799 54.8008 39.4674 54.8789 39.0898C54.957 38.6992 54.9896 38.224 54.9766 37.6641C54.9766 37.0911 54.9375 36.4141 54.8594 35.6328C54.7812 34.8516 54.7031 33.9401 54.625 32.8984C54.5599 31.9349 54.4948 31.0755 54.4297 30.3203C54.3646 29.5651 54.2995 28.8685 54.2344 28.2305C54.1823 27.5794 54.1237 26.9609 54.0586 26.375C54.0065 25.7891 53.9479 25.1836 53.8828 24.5586C53.8177 23.9336 53.7461 23.276 53.668 22.5859C53.6029 21.8828 53.5312 21.0951 53.4531 20.2227ZM48.0234 44.0312C48.0234 43.6146 48.1016 43.224 48.2578 42.8594C48.4141 42.4948 48.6289 42.1758 48.9023 41.9023C49.1628 41.6289 49.4753 41.4141 49.8398 41.2578C50.1914 41.1016 50.5755 41.0234 50.9922 41.0234C51.4089 41.0234 51.7995 41.1016 52.1641 41.2578C52.5286 41.4141 52.8477 41.6289 53.1211 41.9023C53.3945 42.1758 53.6094 42.4948 53.7656 42.8594C53.9219 43.224 54 43.6146 54 44.0312C54 44.4479 53.9219 44.8385 53.7656 45.2031C53.6094 45.5547 53.3945 45.8672 53.1211 46.1406C52.8477 46.401 52.5286 46.6094 52.1641 46.7656C51.7995 46.9219 51.4089 47 50.9922 47C50.5755 47 50.1914 46.9219 49.8398 46.7656C49.4753 46.6094 49.1628 46.401 48.9023 46.1406C48.6289 45.8672 48.4141 45.5547 48.2578 45.2031C48.1016 44.8385 48.0234 44.4479 48.0234 44.0312ZM70.3477 36.5508C70.3607 37.6315 70.5169 38.4714 70.8164 39.0703C71.1159 39.6693 71.4674 40.1185 71.8711 40.418C72.2878 40.7044 72.7044 40.8802 73.1211 40.9453C73.5508 40.9974 73.9023 41.0234 74.1758 41.0234H74.8789V47H73.9609C73.1927 47 72.3919 46.9023 71.5586 46.707C70.7253 46.5117 69.9505 46.1667 69.2344 45.6719C68.5312 45.1771 67.9388 44.5 67.457 43.6406C66.9753 42.7812 66.7018 41.6875 66.6367 40.3594C66.5586 38.9531 66.474 37.4948 66.3828 35.9844C66.2917 34.4609 66.181 32.8594 66.0508 31.1797C65.9336 29.5 65.7839 27.7227 65.6016 25.8477C65.4193 23.9727 65.1914 21.9674 64.918 19.832C65.0091 19.7279 65.1719 19.5651 65.4062 19.3438C65.6536 19.1094 65.9336 18.862 66.2461 18.6016C66.5586 18.3281 66.8841 18.0547 67.2227 17.7812C67.5742 17.5078 67.8932 17.2669 68.1797 17.0586C68.4792 16.8503 68.7266 16.7005 68.9219 16.6094C69.1302 16.5052 69.2539 16.4922 69.293 16.5703C69.332 16.6615 69.3841 16.9805 69.4492 17.5273C69.5273 18.0612 69.599 18.7773 69.6641 19.6758C69.7422 20.5742 69.8138 21.6354 69.8789 22.8594C69.957 24.0703 70.0286 25.4049 70.0938 26.8633C70.1589 28.3086 70.2109 29.8516 70.25 31.4922C70.3021 33.1198 70.3346 34.806 70.3477 36.5508ZM83.1406 25.0078C84.1042 25.0078 84.9766 25.2943 85.7578 25.8672C86.5521 26.4401 87.2292 27.2148 87.7891 28.1914C88.349 29.168 88.7786 30.3008 89.0781 31.5898C89.3906 32.8789 89.5469 34.2331 89.5469 35.6523C89.5469 37.1497 89.3776 38.4714 89.0391 39.6172C88.7005 40.763 88.2318 41.7591 87.6328 42.6055C87.0469 43.4388 86.3633 44.1419 85.582 44.7148C84.8008 45.2747 83.9609 45.724 83.0625 46.0625C82.1771 46.401 81.2591 46.6419 80.3086 46.7852C79.3711 46.9284 78.4466 47 77.5352 47H74.3125L74.293 41.0234H77.4766C78.7656 41.0234 79.9049 40.9648 80.8945 40.8477C81.8971 40.7305 82.763 40.5547 83.4922 40.3203C84.2344 40.0859 84.8529 39.806 85.3477 39.4805C85.8424 39.1419 86.2396 38.7578 86.5391 38.3281C86.513 38.3542 86.4284 38.4128 86.2852 38.5039C86.1549 38.582 85.9401 38.6732 85.6406 38.7773C85.3542 38.8685 84.9831 38.9531 84.5273 39.0312C84.0716 39.1094 83.5117 39.1549 82.8477 39.168C81.4414 39.168 80.3151 38.9792 79.4688 38.6016C78.6224 38.224 77.9779 37.7161 77.5352 37.0781C77.1055 36.4271 76.8385 35.6784 76.7344 34.832C76.6432 33.9727 76.6432 33.0677 76.7344 32.1172C76.8125 31.2578 77.0208 30.4049 77.3594 29.5586C77.7109 28.6992 78.1602 27.9375 78.707 27.2734C79.2669 26.5964 79.918 26.0495 80.6602 25.6328C81.4154 25.2161 82.2422 25.0078 83.1406 25.0078ZM82.9062 34.3438C83.6615 34.3438 84.2799 34.3112 84.7617 34.2461C85.2435 34.181 85.6276 34.1094 85.9141 34.0312C86.2005 33.9531 86.3958 33.8815 86.5 33.8164C86.6172 33.7513 86.6758 33.7253 86.6758 33.7383C86.6107 33.5169 86.487 33.1849 86.3047 32.7422C86.1354 32.2865 85.8815 31.8307 85.543 31.375C85.2174 30.9193 84.8008 30.5156 84.293 30.1641C83.7852 29.7995 83.1732 29.6042 82.457 29.5781C81.9102 29.5651 81.4023 29.6237 80.9336 29.7539C80.4779 29.8711 80.0807 30.0534 79.7422 30.3008C79.4036 30.5352 79.1367 30.8216 78.9414 31.1602C78.7591 31.4987 78.6615 31.8698 78.6484 32.2734C78.6484 32.638 78.7852 32.9505 79.0586 33.2109C79.3451 33.4714 79.6966 33.6862 80.1133 33.8555C80.543 34.0247 81.0052 34.1484 81.5 34.2266C82.0078 34.3047 82.4766 34.3438 82.9062 34.3438ZM71.3438 44.0312C71.3438 43.6146 71.4219 43.224 71.5781 42.8594C71.7344 42.4948 71.9492 42.1758 72.2227 41.9023C72.4831 41.6289 72.7956 41.4141 73.1602 41.2578C73.5117 41.1016 73.8958 41.0234 74.3125 41.0234C74.7292 41.0234 75.1198 41.1016 75.4844 41.2578C75.849 41.4141 76.168 41.6289 76.4414 41.9023C76.7148 42.1758 76.9297 42.4948 77.0859 42.8594C77.2422 43.224 77.3203 43.6146 77.3203 44.0312C77.3203 44.4479 77.2422 44.8385 77.0859 45.2031C76.9297 45.5547 76.7148 45.8672 76.4414 46.1406C76.168 46.401 75.849 46.6094 75.4844 46.7656C75.1198 46.9219 74.7292 47 74.3125 47C73.8958 47 73.5117 46.9219 73.1602 46.7656C72.7956 46.6094 72.4831 46.401 72.2227 46.1406C71.9492 45.8672 71.7344 45.5547 71.5781 45.2031C71.4219 44.8385 71.3438 44.4479 71.3438 44.0312ZM79.8789 19.9297L83.1602 16.6289L86.4414 19.9297L83.1602 23.2109L79.8789 19.9297ZM113.961 41.0234C113.922 40.6719 113.824 40.2161 113.668 39.6562C113.512 39.0833 113.277 38.5234 112.965 37.9766C112.652 37.4297 112.242 36.9414 111.734 36.5117C111.24 36.082 110.621 35.8281 109.879 35.75C109.814 35.724 109.755 35.7109 109.703 35.7109C109.651 35.7109 109.592 35.7109 109.527 35.7109C109.059 35.7109 108.622 35.8086 108.219 36.0039C107.815 36.1992 107.464 36.4531 107.164 36.7656C106.865 37.0651 106.624 37.4102 106.441 37.8008C106.272 38.1784 106.188 38.5495 106.188 38.9141C106.188 39.4219 106.363 39.819 106.715 40.1055C107.066 40.3919 107.548 40.6068 108.16 40.75C108.785 40.8802 109.514 40.9583 110.348 40.9844C111.181 41.0104 112.079 41.0234 113.043 41.0234H113.961ZM110.758 30.75C111.669 30.75 112.451 30.9193 113.102 31.2578C113.753 31.5964 114.306 32.0456 114.762 32.6055C115.23 33.1654 115.615 33.8099 115.914 34.5391C116.214 35.2552 116.454 35.9974 116.637 36.7656C116.819 37.5208 116.956 38.2695 117.047 39.0117C117.138 39.7539 117.216 40.4245 117.281 41.0234H119.273V47H117.047C116.812 48.3932 116.441 49.6497 115.934 50.7695C115.426 51.8893 114.846 52.8789 114.195 53.7383C113.544 54.6107 112.848 55.3529 112.105 55.9648C111.376 56.5898 110.667 57.0977 109.977 57.4883C109.286 57.8789 108.648 58.1654 108.062 58.3477C107.49 58.543 107.034 58.6406 106.695 58.6406H106.656C106.318 58.6016 105.953 58.4909 105.562 58.3086C105.172 58.1263 104.788 57.8984 104.41 57.625C104.033 57.3646 103.661 57.0781 103.297 56.7656C102.945 56.4661 102.626 56.1732 102.34 55.8867C102.053 55.6133 101.812 55.3659 101.617 55.1445C101.422 54.9232 101.292 54.7604 101.227 54.6562C101.148 54.5521 101.109 54.4284 101.109 54.2852C101.109 54.1419 101.22 54.0703 101.441 54.0703H101.48C101.572 54.0703 101.656 54.0703 101.734 54.0703C101.812 54.0833 101.891 54.0898 101.969 54.0898C102.75 54.0898 103.544 53.9987 104.352 53.8164C105.159 53.6471 105.96 53.4062 106.754 53.0938C107.548 52.7812 108.31 52.4036 109.039 51.9609C109.781 51.5182 110.465 51.0365 111.09 50.5156C111.715 49.9948 112.262 49.4349 112.73 48.8359C113.212 48.237 113.59 47.625 113.863 47H113.609C111.747 47 110.198 46.8763 108.961 46.6289C107.737 46.3685 106.76 45.9714 106.031 45.4375C105.302 44.8906 104.781 44.194 104.469 43.3477C104.169 42.5013 104.02 41.4792 104.02 40.2812C104.02 39.7604 104.085 39.168 104.215 38.5039C104.345 37.8268 104.54 37.1367 104.801 36.4336C105.061 35.7305 105.38 35.0404 105.758 34.3633C106.135 33.6862 106.572 33.0807 107.066 32.5469C107.574 32.013 108.134 31.5833 108.746 31.2578C109.358 30.9193 110.022 30.75 110.738 30.75H110.758ZM119.039 24.5195L122.086 21.4727L125.113 24.5195L122.086 27.5469L119.039 24.5195ZM124.273 24.5195L127.32 21.4727L130.348 24.5195L127.32 27.5469L124.273 24.5195ZM125.953 29.0703C126.031 29.0833 126.194 29.2982 126.441 29.7148C126.689 30.1315 126.956 30.6784 127.242 31.3555C127.542 32.0195 127.828 32.7878 128.102 33.6602C128.375 34.5195 128.583 35.418 128.727 36.3555C128.883 37.2799 128.941 38.2044 128.902 39.1289C128.863 40.0534 128.668 40.9128 128.316 41.707C128.082 42.2409 127.717 42.8203 127.223 43.4453C126.728 44.0573 126.103 44.6302 125.348 45.1641C124.592 45.6849 123.707 46.1211 122.691 46.4727C121.676 46.8242 120.536 47 119.273 47H118.59V41.0234H119.117C119.234 41.0234 119.475 41.0169 119.84 41.0039C120.204 40.9909 120.621 40.9714 121.09 40.9453C121.572 40.9062 122.073 40.8607 122.594 40.8086C123.115 40.7565 123.59 40.6914 124.02 40.6133C124.462 40.5221 124.827 40.4245 125.113 40.3203C125.4 40.2031 125.543 40.0729 125.543 39.9297C125.543 39.7474 125.465 39.4805 125.309 39.1289C125.152 38.7773 124.951 38.3867 124.703 37.957C124.469 37.5143 124.208 37.0586 123.922 36.5898C123.635 36.1211 123.349 35.6784 123.062 35.2617C122.789 34.832 122.542 34.4544 122.32 34.1289C122.099 33.8034 121.936 33.5625 121.832 33.4062C122.483 32.5599 123.082 31.8177 123.629 31.1797C123.863 30.9062 124.098 30.6393 124.332 30.3789C124.566 30.1185 124.788 29.8906 124.996 29.6953C125.204 29.5 125.393 29.3438 125.562 29.2266C125.732 29.1094 125.862 29.0573 125.953 29.0703ZM115.602 44.0312C115.602 43.6146 115.68 43.224 115.836 42.8594C115.992 42.4948 116.207 42.1758 116.48 41.9023C116.741 41.6289 117.053 41.4141 117.418 41.2578C117.77 41.1016 118.154 41.0234 118.57 41.0234C118.987 41.0234 119.378 41.1016 119.742 41.2578C120.107 41.4141 120.426 41.6289 120.699 41.9023C120.973 42.1758 121.188 42.4948 121.344 42.8594C121.5 43.224 121.578 43.6146 121.578 44.0312C121.578 44.4479 121.5 44.8385 121.344 45.2031C121.188 45.5547 120.973 45.8672 120.699 46.1406C120.426 46.401 120.107 46.6094 119.742 46.7656C119.378 46.9219 118.987 47 118.57 47C118.154 47 117.77 46.9219 117.418 46.7656C117.053 46.6094 116.741 46.401 116.48 46.1406C116.207 45.8672 115.992 45.5547 115.836 45.2031C115.68 44.8385 115.602 44.4479 115.602 44.0312ZM241.227 41.0234V47H240.523C239.443 47 238.531 46.8698 237.789 46.6094C237.047 46.349 236.435 45.9974 235.953 45.5547C235.484 45.112 235.126 44.6042 234.879 44.0312C234.632 43.4453 234.469 42.8398 234.391 42.2148C234.13 42.5404 233.883 42.8333 233.648 43.0938C233.453 43.3151 233.258 43.5299 233.062 43.7383C232.867 43.9466 232.737 44.0833 232.672 44.1484C232.633 44.1875 232.509 44.2201 232.301 44.2461C232.092 44.2721 231.832 44.2982 231.52 44.3242C231.22 44.3372 230.888 44.3438 230.523 44.3438C230.172 44.3438 229.82 44.3372 229.469 44.3242C229.13 44.3112 228.811 44.2917 228.512 44.2656C228.225 44.2396 227.991 44.2005 227.809 44.1484C227.262 44.0312 226.773 43.6667 226.344 43.0547C225.927 42.4297 225.608 41.6875 225.387 40.8281C225.165 39.9688 225.061 39.0573 225.074 38.0938C225.087 37.1302 225.257 36.2448 225.582 35.4375C225.699 35.1771 225.914 34.8711 226.227 34.5195C226.539 34.1549 226.917 33.7773 227.359 33.3867C227.802 32.9831 228.284 32.5794 228.805 32.1758C229.339 31.7591 229.866 31.3555 230.387 30.9648C230.908 30.5742 231.409 30.2096 231.891 29.8711C232.372 29.5326 232.789 29.2396 233.141 28.9922C233.115 28.875 233.095 28.7122 233.082 28.5039C233.069 28.2956 233.049 28.0872 233.023 27.8789C232.997 27.6445 232.978 27.3841 232.965 27.0977C233.043 27.0195 233.186 26.8958 233.395 26.7266C233.603 26.5443 233.844 26.349 234.117 26.1406C234.391 25.9193 234.677 25.6979 234.977 25.4766C235.276 25.2552 235.549 25.0599 235.797 24.8906C236.057 24.7083 236.266 24.5716 236.422 24.4805C236.591 24.3763 236.682 24.3438 236.695 24.3828C236.747 24.7865 236.793 25.2943 236.832 25.9062C236.884 26.5052 236.93 27.1628 236.969 27.8789C237.008 28.582 237.047 29.3177 237.086 30.0859C237.125 30.8542 237.158 31.6029 237.184 32.332C237.223 33.0482 237.255 33.7253 237.281 34.3633C237.307 35.0013 237.34 35.5482 237.379 36.0039C237.457 37.1367 237.607 38.0352 237.828 38.6992C238.049 39.3503 238.316 39.8451 238.629 40.1836C238.954 40.5221 239.312 40.7435 239.703 40.8477C240.094 40.9518 240.497 41.0104 240.914 41.0234H241.227ZM227.086 37.3516C227.112 37.7292 227.249 38.0482 227.496 38.3086C227.743 38.556 228.062 38.7578 228.453 38.9141C228.857 39.0573 229.306 39.168 229.801 39.2461C230.296 39.3112 230.79 39.3503 231.285 39.3633C231.793 39.3633 232.281 39.3503 232.75 39.3242C233.232 39.2852 233.655 39.2396 234.02 39.1875C233.928 38.5495 233.857 37.957 233.805 37.4102C233.753 36.8633 233.707 36.349 233.668 35.8672C233.642 35.3724 233.609 34.9036 233.57 34.4609C233.544 34.0052 233.505 33.5495 233.453 33.0938C232.685 33.4323 231.917 33.8034 231.148 34.207C230.38 34.6107 229.684 35.0143 229.059 35.418C228.447 35.8216 227.952 36.1992 227.574 36.5508C227.21 36.8893 227.047 37.1562 227.086 37.3516ZM248.18 29.0703C248.258 29.0833 248.421 29.2982 248.668 29.7148C248.915 30.1315 249.182 30.6784 249.469 31.3555C249.768 32.0195 250.055 32.7878 250.328 33.6602C250.602 34.5195 250.81 35.418 250.953 36.3555C251.109 37.2799 251.168 38.2044 251.129 39.1289C251.09 40.0534 250.895 40.9128 250.543 41.707C250.309 42.2409 249.944 42.8203 249.449 43.4453C248.954 44.0573 248.329 44.6302 247.574 45.1641C246.819 45.6849 245.934 46.1211 244.918 46.4727C243.902 46.8242 242.763 47 241.5 47H240.816V41.0234H241.344C241.461 41.0234 241.702 41.0169 242.066 41.0039C242.431 40.9909 242.848 40.9714 243.316 40.9453C243.798 40.9062 244.299 40.8607 244.82 40.8086C245.341 40.7565 245.816 40.6914 246.246 40.6133C246.689 40.5221 247.053 40.4245 247.34 40.3203C247.626 40.2031 247.77 40.0729 247.77 39.9297C247.77 39.7474 247.691 39.4805 247.535 39.1289C247.379 38.7773 247.177 38.3867 246.93 37.957C246.695 37.5143 246.435 37.0586 246.148 36.5898C245.862 36.1211 245.576 35.6784 245.289 35.2617C245.016 34.832 244.768 34.4544 244.547 34.1289C244.326 33.8034 244.163 33.5625 244.059 33.4062C244.71 32.5599 245.309 31.8177 245.855 31.1797C246.09 30.9062 246.324 30.6393 246.559 30.3789C246.793 30.1185 247.014 29.8906 247.223 29.6953C247.431 29.5 247.62 29.3438 247.789 29.2266C247.958 29.1094 248.089 29.0573 248.18 29.0703ZM237.828 44.0312C237.828 43.6146 237.906 43.224 238.062 42.8594C238.219 42.4948 238.434 42.1758 238.707 41.9023C238.967 41.6289 239.28 41.4141 239.645 41.2578C239.996 41.1016 240.38 41.0234 240.797 41.0234C241.214 41.0234 241.604 41.1016 241.969 41.2578C242.333 41.4141 242.652 41.6289 242.926 41.9023C243.199 42.1758 243.414 42.4948 243.57 42.8594C243.727 43.224 243.805 43.6146 243.805 44.0312C243.805 44.4479 243.727 44.8385 243.57 45.2031C243.414 45.5547 243.199 45.8672 242.926 46.1406C242.652 46.401 242.333 46.6094 241.969 46.7656C241.604 46.9219 241.214 47 240.797 47C240.38 47 239.996 46.9219 239.645 46.7656C239.28 46.6094 238.967 46.401 238.707 46.1406C238.434 45.8672 238.219 45.5547 238.062 45.2031C237.906 44.8385 237.828 44.4479 237.828 44.0312ZM241.793 53.9531L244.84 50.9062L247.867 53.9531L244.84 56.9805L241.793 53.9531ZM247.027 53.9531L250.074 50.9062L253.102 53.9531L250.074 56.9805L247.027 53.9531Z" fill="white"/>
        <path d="M158.688 41.0234V47H157.984C156.904 47 155.992 46.8698 155.25 46.6094C154.508 46.349 153.896 45.9974 153.414 45.5547C152.945 45.112 152.587 44.6042 152.34 44.0312C152.092 43.4453 151.93 42.8398 151.852 42.2148C151.591 42.5404 151.344 42.8333 151.109 43.0938C150.914 43.3151 150.719 43.5299 150.523 43.7383C150.328 43.9466 150.198 44.0833 150.133 44.1484C150.094 44.1875 149.97 44.2201 149.762 44.2461C149.553 44.2721 149.293 44.2982 148.98 44.3242C148.681 44.3372 148.349 44.3438 147.984 44.3438C147.633 44.3438 147.281 44.3372 146.93 44.3242C146.591 44.3112 146.272 44.2917 145.973 44.2656C145.686 44.2396 145.452 44.2005 145.27 44.1484C144.723 44.0312 144.234 43.6667 143.805 43.0547C143.388 42.4297 143.069 41.6875 142.848 40.8281C142.626 39.9688 142.522 39.0573 142.535 38.0938C142.548 37.1302 142.717 36.2448 143.043 35.4375C143.16 35.1771 143.375 34.8711 143.688 34.5195C144 34.1549 144.378 33.7773 144.82 33.3867C145.263 32.9831 145.745 32.5794 146.266 32.1758C146.799 31.7591 147.327 31.3555 147.848 30.9648C148.368 30.5742 148.87 30.2096 149.352 29.8711C149.833 29.5326 150.25 29.2396 150.602 28.9922C150.576 28.875 150.556 28.7122 150.543 28.5039C150.53 28.2956 150.51 28.0872 150.484 27.8789C150.458 27.6445 150.439 27.3841 150.426 27.0977C150.504 27.0195 150.647 26.8958 150.855 26.7266C151.064 26.5443 151.305 26.349 151.578 26.1406C151.852 25.9193 152.138 25.6979 152.438 25.4766C152.737 25.2552 153.01 25.0599 153.258 24.8906C153.518 24.7083 153.727 24.5716 153.883 24.4805C154.052 24.3763 154.143 24.3438 154.156 24.3828C154.208 24.7865 154.254 25.2943 154.293 25.9062C154.345 26.5052 154.391 27.1628 154.43 27.8789C154.469 28.582 154.508 29.3177 154.547 30.0859C154.586 30.8542 154.618 31.6029 154.645 32.332C154.684 33.0482 154.716 33.7253 154.742 34.3633C154.768 35.0013 154.801 35.5482 154.84 36.0039C154.918 37.1367 155.068 38.0352 155.289 38.6992C155.51 39.3503 155.777 39.8451 156.09 40.1836C156.415 40.5221 156.773 40.7435 157.164 40.8477C157.555 40.9518 157.958 41.0104 158.375 41.0234H158.688ZM144.547 37.3516C144.573 37.7292 144.71 38.0482 144.957 38.3086C145.204 38.556 145.523 38.7578 145.914 38.9141C146.318 39.0573 146.767 39.168 147.262 39.2461C147.757 39.3112 148.251 39.3503 148.746 39.3633C149.254 39.3633 149.742 39.3503 150.211 39.3242C150.693 39.2852 151.116 39.2396 151.48 39.1875C151.389 38.5495 151.318 37.957 151.266 37.4102C151.214 36.8633 151.168 36.349 151.129 35.8672C151.103 35.3724 151.07 34.9036 151.031 34.4609C151.005 34.0052 150.966 33.5495 150.914 33.0938C150.146 33.4323 149.378 33.8034 148.609 34.207C147.841 34.6107 147.145 35.0143 146.52 35.418C145.908 35.8216 145.413 36.1992 145.035 36.5508C144.671 36.8893 144.508 37.1562 144.547 37.3516ZM165.641 29.0703C165.719 29.0833 165.882 29.2982 166.129 29.7148C166.376 30.1315 166.643 30.6784 166.93 31.3555C167.229 32.0195 167.516 32.7878 167.789 33.6602C168.062 34.5195 168.271 35.418 168.414 36.3555C168.57 37.2799 168.629 38.2044 168.59 39.1289C168.551 40.0534 168.355 40.9128 168.004 41.707C167.77 42.2409 167.405 42.8203 166.91 43.4453C166.415 44.0573 165.79 44.6302 165.035 45.1641C164.28 45.6849 163.395 46.1211 162.379 46.4727C161.363 46.8242 160.224 47 158.961 47H158.277V41.0234H158.805C158.922 41.0234 159.163 41.0169 159.527 41.0039C159.892 40.9909 160.309 40.9714 160.777 40.9453C161.259 40.9062 161.76 40.8607 162.281 40.8086C162.802 40.7565 163.277 40.6914 163.707 40.6133C164.15 40.5221 164.514 40.4245 164.801 40.3203C165.087 40.2031 165.23 40.0729 165.23 39.9297C165.23 39.7474 165.152 39.4805 164.996 39.1289C164.84 38.7773 164.638 38.3867 164.391 37.957C164.156 37.5143 163.896 37.0586 163.609 36.5898C163.323 36.1211 163.036 35.6784 162.75 35.2617C162.477 34.832 162.229 34.4544 162.008 34.1289C161.786 33.8034 161.624 33.5625 161.52 33.4062C162.171 32.5599 162.77 31.8177 163.316 31.1797C163.551 30.9062 163.785 30.6393 164.02 30.3789C164.254 30.1185 164.475 29.8906 164.684 29.6953C164.892 29.5 165.081 29.3438 165.25 29.2266C165.419 29.1094 165.549 29.0573 165.641 29.0703ZM155.289 44.0312C155.289 43.6146 155.367 43.224 155.523 42.8594C155.68 42.4948 155.895 42.1758 156.168 41.9023C156.428 41.6289 156.741 41.4141 157.105 41.2578C157.457 41.1016 157.841 41.0234 158.258 41.0234C158.674 41.0234 159.065 41.1016 159.43 41.2578C159.794 41.4141 160.113 41.6289 160.387 41.9023C160.66 42.1758 160.875 42.4948 161.031 42.8594C161.188 43.224 161.266 43.6146 161.266 44.0312C161.266 44.4479 161.188 44.8385 161.031 45.2031C160.875 45.5547 160.66 45.8672 160.387 46.1406C160.113 46.401 159.794 46.6094 159.43 46.7656C159.065 46.9219 158.674 47 158.258 47C157.841 47 157.457 46.9219 157.105 46.7656C156.741 46.6094 156.428 46.401 156.168 46.1406C155.895 45.8672 155.68 45.5547 155.523 45.2031C155.367 44.8385 155.289 44.4479 155.289 44.0312ZM159.254 53.9531L162.301 50.9062L165.328 53.9531L162.301 56.9805L159.254 53.9531ZM164.488 53.9531L167.535 50.9062L170.562 53.9531L167.535 56.9805L164.488 53.9531ZM190.309 40.9258C190.517 40.9909 190.68 41.0234 190.797 41.0234C190.927 41.0234 191.103 41.0234 191.324 41.0234H191.48V47H191.227C190.406 47 189.703 46.8503 189.117 46.5508C188.531 46.2383 188.036 45.8607 187.633 45.418C187.229 44.9622 186.904 44.4805 186.656 43.9727C186.409 43.4648 186.214 43.0156 186.07 42.625C185.953 43.2109 185.745 43.7708 185.445 44.3047C185.159 44.8255 184.755 45.2878 184.234 45.6914C183.727 46.082 183.082 46.3945 182.301 46.6289C181.533 46.8633 180.608 46.9805 179.527 46.9805C178.382 46.9805 177.424 46.7917 176.656 46.4141C175.888 46.0365 175.27 45.5677 174.801 45.0078C174.345 44.4479 174.007 43.8424 173.785 43.1914C173.577 42.5273 173.453 41.9154 173.414 41.3555C173.375 40.7956 173.388 40.3268 173.453 39.9492C173.531 39.5716 173.629 39.3828 173.746 39.3828C173.889 39.3828 174.007 39.4219 174.098 39.5C174.189 39.5781 174.299 39.6758 174.43 39.793C174.56 39.9102 174.729 40.0404 174.938 40.1836C175.146 40.3268 175.432 40.457 175.797 40.5742C176.174 40.6914 176.656 40.7891 177.242 40.8672C177.841 40.9453 178.59 40.9844 179.488 40.9844C180.074 40.9844 180.66 40.9323 181.246 40.8281C181.832 40.7109 182.359 40.5742 182.828 40.418C183.297 40.2617 183.674 40.099 183.961 39.9297C184.26 39.7604 184.41 39.6172 184.41 39.5C184.41 39.3568 184.345 39.1029 184.215 38.7383C184.098 38.3737 183.935 37.944 183.727 37.4492C183.518 36.9544 183.284 36.4141 183.023 35.8281C182.763 35.2292 182.496 34.6367 182.223 34.0508C181.585 32.6706 180.862 31.1406 180.055 29.4609C180.68 28.6536 181.246 27.9375 181.754 27.3125C181.962 27.0521 182.171 26.7982 182.379 26.5508C182.587 26.3034 182.776 26.0885 182.945 25.9062C183.115 25.7109 183.251 25.5612 183.355 25.457C183.473 25.3529 183.544 25.3138 183.57 25.3398C183.727 25.6654 183.922 26.1406 184.156 26.7656C184.391 27.3906 184.645 28.1003 184.918 28.8945C185.204 29.6758 185.497 30.5156 185.797 31.4141C186.096 32.2995 186.389 33.1784 186.676 34.0508C186.962 34.9102 187.236 35.7305 187.496 36.5117C187.757 37.2799 187.991 37.9375 188.199 38.4844C188.473 39.2266 188.798 39.793 189.176 40.1836C189.553 40.5742 189.931 40.8216 190.309 40.9258ZM197.887 28.6602C198.46 28.8815 199.15 29.1549 199.957 29.4805C200.764 29.806 201.617 30.1836 202.516 30.6133C203.427 31.0299 204.345 31.5052 205.27 32.0391C206.194 32.5599 207.053 33.1328 207.848 33.7578C208.655 34.3828 209.365 35.0599 209.977 35.7891C210.589 36.5182 211.025 37.306 211.285 38.1523C211.559 38.9857 211.624 39.8776 211.48 40.8281C211.35 41.7656 210.94 42.7617 210.25 43.8164C209.69 44.6628 209.072 45.3138 208.395 45.7695C207.73 46.2122 207.053 46.5182 206.363 46.6875C205.673 46.8438 204.99 46.8958 204.312 46.8438C203.648 46.7917 203.03 46.7005 202.457 46.5703C201.897 46.4271 201.409 46.2708 200.992 46.1016C200.576 45.9323 200.283 45.8151 200.113 45.75C199.723 45.9714 199.293 46.1602 198.824 46.3164C198.355 46.4727 197.861 46.6029 197.34 46.707C196.832 46.8112 196.311 46.8893 195.777 46.9414C195.243 46.9805 194.729 47 194.234 47H191.188V41.0234H192.867C192.919 41.0234 193.049 41.0234 193.258 41.0234C193.479 41.0234 193.727 41.0169 194 41.0039C193.727 40.1445 193.57 39.3633 193.531 38.6602C193.492 37.944 193.525 37.2995 193.629 36.7266C193.733 36.1536 193.889 35.6523 194.098 35.2227C194.306 34.7799 194.514 34.4089 194.723 34.1094C194.944 33.7969 195.146 33.5495 195.328 33.3672C195.523 33.1849 195.654 33.0547 195.719 32.9766L194.547 32.5273C194.625 32.4102 194.742 32.2279 194.898 31.9805C195.068 31.7331 195.257 31.4661 195.465 31.1797C195.673 30.8802 195.888 30.5742 196.109 30.2617C196.331 29.9362 196.533 29.6497 196.715 29.4023C196.897 29.1419 197.053 28.9336 197.184 28.7773C197.327 28.6081 197.411 28.5234 197.438 28.5234L197.887 28.6602ZM202.301 39.0508C202.457 38.5951 202.522 38.1263 202.496 37.6445C202.483 37.1497 202.392 36.694 202.223 36.2773C202.066 35.8477 201.845 35.4766 201.559 35.1641C201.272 34.8385 200.934 34.6107 200.543 34.4805C199.84 34.2461 199.195 34.1875 198.609 34.3047C198.023 34.4219 197.509 34.6367 197.066 34.9492C196.637 35.2617 196.285 35.6263 196.012 36.043C195.751 36.4596 195.595 36.8503 195.543 37.2148C195.504 37.4883 195.576 37.8008 195.758 38.1523C195.94 38.4909 196.207 38.8294 196.559 39.168C196.91 39.5065 197.333 39.8255 197.828 40.125C198.323 40.4115 198.857 40.6328 199.43 40.7891C199.977 40.763 200.432 40.6654 200.797 40.4961C201.174 40.3138 201.474 40.112 201.695 39.8906C201.956 39.6432 202.158 39.3633 202.301 39.0508ZM208.609 42.3516C209.052 41.8568 209.286 41.375 209.312 40.9062C209.352 40.4375 209.254 39.9948 209.02 39.5781C208.785 39.1484 208.453 38.7513 208.023 38.3867C207.607 38.0091 207.171 37.6771 206.715 37.3906C206.259 37.0911 205.816 36.8307 205.387 36.6094C204.957 36.388 204.625 36.2188 204.391 36.1016C204.456 36.3359 204.482 36.6094 204.469 36.9219C204.469 37.2214 204.443 37.5404 204.391 37.8789C204.352 38.2044 204.286 38.5365 204.195 38.875C204.104 39.2135 204.013 39.5456 203.922 39.8711C203.688 40.6263 203.401 41.4076 203.062 42.2148C203.766 42.4492 204.423 42.6185 205.035 42.7227C205.66 42.8268 206.214 42.8789 206.695 42.8789C207.177 42.8659 207.581 42.8138 207.906 42.7227C208.245 42.6185 208.479 42.4948 208.609 42.3516ZM188.219 44.0312C188.219 43.6146 188.297 43.224 188.453 42.8594C188.609 42.4948 188.824 42.1758 189.098 41.9023C189.358 41.6289 189.671 41.4141 190.035 41.2578C190.387 41.1016 190.771 41.0234 191.188 41.0234C191.604 41.0234 191.995 41.1016 192.359 41.2578C192.724 41.4141 193.043 41.6289 193.316 41.9023C193.59 42.1758 193.805 42.4948 193.961 42.8594C194.117 43.224 194.195 43.6146 194.195 44.0312C194.195 44.4479 194.117 44.8385 193.961 45.2031C193.805 45.5547 193.59 45.8672 193.316 46.1406C193.043 46.401 192.724 46.6094 192.359 46.7656C191.995 46.9219 191.604 47 191.188 47C190.771 47 190.387 46.9219 190.035 46.7656C189.671 46.6094 189.358 46.401 189.098 46.1406C188.824 45.8672 188.609 45.5547 188.453 45.2031C188.297 44.8385 188.219 44.4479 188.219 44.0312Z" fill="#FF7745"/>
    </g>
    <path d="M86.5859 80.8789L85.7305 72.1602V68.1289H89.293V72.1602L88.4492 80.8789H86.5859ZM89.4219 84.2305C89.4219 84.5039 89.375 84.7539 89.2812 84.9805C89.1953 85.207 89.0703 85.4023 88.9062 85.5664C88.7422 85.7305 88.5469 85.8594 88.3203 85.9531C88.0938 86.0391 87.8477 86.082 87.582 86.082C87.3086 86.082 87.0586 86.0391 86.832 85.9531C86.6133 85.8594 86.4219 85.7305 86.2578 85.5664C86.1016 85.4023 85.9805 85.207 85.8945 84.9805C85.8086 84.7539 85.7656 84.5039 85.7656 84.2305C85.7656 83.957 85.8125 83.707 85.9062 83.4805C86 83.2539 86.125 83.0586 86.2812 82.8945C86.4453 82.7305 86.6367 82.6016 86.8555 82.5078C87.082 82.4141 87.332 82.3672 87.6055 82.3672C87.8711 82.3672 88.1133 82.4141 88.332 82.5078C88.5586 82.6016 88.75 82.7305 88.9062 82.8945C89.0703 83.0586 89.1953 83.2539 89.2812 83.4805C89.375 83.707 89.4219 83.957 89.4219 84.2305ZM91.9414 70.1797C92.3164 69.8594 92.6758 69.5586 93.0195 69.2773C93.168 69.1602 93.3164 69.043 93.4648 68.9258C93.6133 68.8008 93.7578 68.6836 93.8984 68.5742C94.0391 68.4648 94.168 68.3672 94.2852 68.2812C94.4102 68.1875 94.5156 68.1133 94.6016 68.0586C94.7422 67.9492 94.8242 67.9492 94.8477 68.0586C94.9258 68.7695 94.9883 69.5859 95.0352 70.5078C95.0898 71.4219 95.1289 72.3828 95.1523 73.3906C95.1836 74.3906 95.1992 75.4023 95.1992 76.4258C95.1992 77.4414 95.1836 78.4023 95.1523 79.3086C95.1289 80.2148 95.0898 81.0352 95.0352 81.7695C94.9805 82.5039 94.9141 83.082 94.8359 83.5039C94.7656 83.668 94.6836 83.8477 94.5898 84.043C94.5039 84.207 94.4023 84.3984 94.2852 84.6172C94.168 84.8281 94.0352 85.0547 93.8867 85.2969C93.7461 85.5156 93.6094 85.7148 93.4766 85.8945C93.3438 86.0742 93.2227 86.2188 93.1133 86.3281C93.0117 86.4375 92.9258 86.5 92.8555 86.5156C92.793 86.5391 92.7617 86.4922 92.7617 86.375C92.7461 85.8047 92.7266 85.125 92.7031 84.3359C92.6797 83.5469 92.6523 82.6953 92.6211 81.7812C92.5898 80.8672 92.5508 79.9062 92.5039 78.8984C92.4648 77.8906 92.418 76.8828 92.3633 75.875C92.3086 74.8672 92.2461 73.8789 92.1758 72.9102C92.1055 71.9414 92.0273 71.0312 91.9414 70.1797ZM100.414 78.8516C100.445 78.8516 100.512 78.9414 100.613 79.1211C100.723 79.293 100.855 79.5117 101.012 79.7773C101.168 80.043 101.352 80.3281 101.562 80.6328C101.773 80.9375 102 81.2227 102.242 81.4883C102.484 81.7539 102.742 81.9766 103.016 82.1562C103.289 82.3281 103.57 82.4141 103.859 82.4141H104.117V86H103.918C103.637 86 103.391 85.9805 103.18 85.9414C102.969 85.9023 102.785 85.8555 102.629 85.8008C102.473 85.7383 102.34 85.6758 102.23 85.6133C102.121 85.543 102.023 85.4766 101.938 85.4141C101.906 86.1094 101.777 86.7773 101.551 87.418C101.332 88.0664 101.051 88.6719 100.707 89.2344C100.371 89.7969 99.9883 90.3086 99.5586 90.7695C99.1289 91.2305 98.6875 91.625 98.2344 91.9531C97.7812 92.2812 97.332 92.5352 96.8867 92.7148C96.4492 92.8945 96.0469 92.9844 95.6797 92.9844C95.4922 92.9766 95.2383 92.8867 94.918 92.7148C94.6055 92.5508 94.2891 92.3477 93.9688 92.1055C93.6484 91.8633 93.3516 91.6133 93.0781 91.3555C92.8047 91.0977 92.6133 90.875 92.5039 90.6875C92.4258 90.5469 92.418 90.4414 92.4805 90.3711C92.543 90.3008 92.6289 90.2656 92.7383 90.2656C93.5117 90.2656 94.2344 90.1719 94.9062 89.9844C95.5781 89.7969 96.1914 89.5508 96.7461 89.2461C97.3008 88.9492 97.793 88.6133 98.2227 88.2383C98.6602 87.8633 99.0234 87.4922 99.3125 87.125C99.6016 86.7578 99.8125 86.4102 99.9453 86.082C100.086 85.7617 100.141 85.5 100.109 85.2969C100.086 85.1562 100.008 84.9336 99.875 84.6289C99.7422 84.3164 99.582 83.9844 99.3945 83.6328C99.2148 83.2812 99.0273 82.9336 98.832 82.5898C98.6445 82.2461 98.4805 81.9609 98.3398 81.7344C98.4805 81.4766 98.6523 81.1836 98.8555 80.8555C99.0664 80.5195 99.2734 80.2031 99.4766 79.9062C99.6797 79.6094 99.8672 79.3594 100.039 79.1562C100.211 78.9531 100.336 78.8516 100.414 78.8516ZM98.2695 75.1484L100.238 73.168L102.207 75.1484L100.238 77.1172L98.2695 75.1484ZM107.785 75.2422C107.832 75.25 107.93 75.3789 108.078 75.6289C108.227 75.8789 108.387 76.207 108.559 76.6133C108.738 77.0117 108.91 77.4727 109.074 77.9961C109.238 78.5117 109.363 79.0508 109.449 79.6133C109.543 80.168 109.578 80.7227 109.555 81.2773C109.531 81.832 109.414 82.3477 109.203 82.8242C109.062 83.1445 108.871 83.4922 108.629 83.8672C108.387 84.2344 108.07 84.5781 107.68 84.8984C107.297 85.2109 106.828 85.4727 106.273 85.6836C105.719 85.8945 105.062 86 104.305 86H103.895V82.4141H104.211C104.281 82.4141 104.41 82.4102 104.598 82.4023C104.793 82.3945 105.012 82.3828 105.254 82.3672C105.504 82.3438 105.762 82.3164 106.027 82.2852C106.301 82.2539 106.547 82.2148 106.766 82.168C106.992 82.1133 107.176 82.0547 107.316 81.9922C107.465 81.9219 107.539 81.8438 107.539 81.7578C107.539 81.6484 107.492 81.4883 107.398 81.2773C107.305 81.0664 107.184 80.832 107.035 80.5742C106.895 80.3086 106.738 80.0352 106.566 79.7539C106.395 79.4727 106.223 79.207 106.051 78.957C105.887 78.6992 105.738 78.4727 105.605 78.2773C105.473 78.082 105.375 77.9375 105.312 77.8438C105.703 77.3359 106.062 76.8906 106.391 76.5078C106.531 76.3438 106.672 76.1836 106.812 76.0273C106.953 75.8711 107.086 75.7344 107.211 75.6172C107.336 75.5 107.449 75.4062 107.551 75.3359C107.652 75.2656 107.73 75.2344 107.785 75.2422ZM102.09 84.2188C102.09 83.9688 102.137 83.7344 102.23 83.5156C102.324 83.2969 102.453 83.1055 102.617 82.9414C102.773 82.7773 102.961 82.6484 103.18 82.5547C103.391 82.4609 103.621 82.4141 103.871 82.4141C104.121 82.4141 104.355 82.4609 104.574 82.5547C104.793 82.6484 104.984 82.7773 105.148 82.9414C105.312 83.1055 105.441 83.2969 105.535 83.5156C105.629 83.7344 105.676 83.9688 105.676 84.2188C105.676 84.4688 105.629 84.7031 105.535 84.9219C105.441 85.1328 105.312 85.3203 105.148 85.4844C104.984 85.6406 104.793 85.7656 104.574 85.8594C104.355 85.9531 104.121 86 103.871 86C103.621 86 103.391 85.9531 103.18 85.8594C102.961 85.7656 102.773 85.6406 102.617 85.4844C102.453 85.3203 102.324 85.1328 102.23 84.9219C102.137 84.7031 102.09 84.4688 102.09 84.2188ZM105.312 72.1133L107.281 70.1328L109.25 72.1133L107.281 74.082L105.312 72.1133ZM121.754 67.918C121.793 68.0273 121.832 68.2969 121.871 68.7266C121.918 69.1562 121.957 69.6914 121.988 70.332C122.027 70.9648 122.062 71.6797 122.094 72.4766C122.125 73.2656 122.152 74.082 122.176 74.9258C122.207 75.7617 122.227 76.5938 122.234 77.4219C122.25 78.25 122.258 79.0195 122.258 79.7305C122.258 80.6914 122.137 81.5234 121.895 82.2266C121.66 82.9219 121.352 83.5117 120.969 83.9961C120.594 84.4805 120.172 84.8711 119.703 85.168C119.242 85.4648 118.785 85.6992 118.332 85.8711C117.879 86.043 117.457 86.1602 117.066 86.2227C116.684 86.293 116.383 86.3359 116.164 86.3516C115.984 86.3672 115.793 86.3789 115.59 86.3867C115.387 86.4023 115.184 86.4102 114.98 86.4102C114.535 86.4102 114.09 86.3906 113.645 86.3516C113.207 86.3203 112.812 86.2695 112.461 86.1992C112.109 86.1289 111.824 86.0391 111.605 85.9297C111.387 85.8203 111.277 85.6914 111.277 85.543C111.277 85.4023 111.359 85.2812 111.523 85.1797C111.688 85.0781 111.906 84.9844 112.18 84.8984C112.453 84.8125 112.77 84.7266 113.129 84.6406C113.496 84.5547 113.875 84.457 114.266 84.3477C114.656 84.2383 115.051 84.1133 115.449 83.9727C115.848 83.8242 116.223 83.6445 116.574 83.4336C116.363 82.9258 116.094 82.332 115.766 81.6523C115.438 80.9648 115.086 80.2539 114.711 79.5195C114.344 78.7773 113.969 78.0391 113.586 77.3047C113.203 76.5625 112.848 75.8789 112.52 75.2539C112.191 74.6289 111.906 74.0938 111.664 73.6484C111.422 73.1953 111.258 72.8867 111.172 72.7227C111.195 72.668 111.258 72.5508 111.359 72.3711C111.461 72.1836 111.582 71.9688 111.723 71.7266C111.863 71.4844 112.012 71.2305 112.168 70.9648C112.332 70.6992 112.488 70.457 112.637 70.2383C112.793 70.0195 112.93 69.8398 113.047 69.6992C113.172 69.5508 113.266 69.4766 113.328 69.4766C113.375 69.4766 113.461 69.6016 113.586 69.8516C113.711 70.1016 113.867 70.4453 114.055 70.8828C114.25 71.3125 114.465 71.8203 114.699 72.4062C114.934 72.9922 115.18 73.6211 115.438 74.293C115.695 74.957 115.957 75.6523 116.223 76.3789C116.496 77.1055 116.758 77.8242 117.008 78.5352C117.266 79.2461 117.508 79.9375 117.734 80.6094C117.969 81.2734 118.176 81.8828 118.355 82.4375C119.004 82.0859 119.465 81.707 119.738 81.3008C120.012 80.8945 120.156 80.4961 120.172 80.1055C120.18 79.8945 120.168 79.5938 120.137 79.2031C120.105 78.8047 120.059 78.3555 119.996 77.8555C119.934 77.3555 119.859 76.8242 119.773 76.2617C119.695 75.6914 119.613 75.125 119.527 74.5625C119.324 73.25 119.09 71.8242 118.824 70.2852C118.871 70.2383 118.965 70.1445 119.105 70.0039C119.246 69.8633 119.41 69.707 119.598 69.5352C119.793 69.3555 120 69.1719 120.219 68.9844C120.438 68.7891 120.645 68.6133 120.84 68.457C121.043 68.293 121.223 68.1602 121.379 68.0586C121.543 67.9492 121.66 67.8945 121.73 67.8945L121.754 67.918ZM125.387 70.1797C125.762 69.8594 126.121 69.5586 126.465 69.2773C126.613 69.1602 126.762 69.043 126.91 68.9258C127.059 68.8008 127.203 68.6836 127.344 68.5742C127.484 68.4648 127.613 68.3672 127.73 68.2812C127.855 68.1875 127.961 68.1133 128.047 68.0586C128.188 67.9492 128.27 67.9492 128.293 68.0586C128.371 68.7695 128.434 69.5859 128.48 70.5078C128.535 71.4219 128.574 72.3828 128.598 73.3906C128.629 74.3906 128.645 75.4023 128.645 76.4258C128.645 77.4414 128.629 78.4023 128.598 79.3086C128.574 80.2148 128.535 81.0352 128.48 81.7695C128.426 82.5039 128.359 83.082 128.281 83.5039C128.211 83.668 128.129 83.8477 128.035 84.043C127.949 84.207 127.848 84.3984 127.73 84.6172C127.613 84.8281 127.48 85.0547 127.332 85.2969C127.191 85.5156 127.055 85.7148 126.922 85.8945C126.789 86.0742 126.668 86.2188 126.559 86.3281C126.457 86.4375 126.371 86.5 126.301 86.5156C126.238 86.5391 126.207 86.4922 126.207 86.375C126.191 85.8047 126.172 85.125 126.148 84.3359C126.125 83.5469 126.098 82.6953 126.066 81.7812C126.035 80.8672 125.996 79.9062 125.949 78.8984C125.91 77.8906 125.863 76.8828 125.809 75.875C125.754 74.8672 125.691 73.8789 125.621 72.9102C125.551 71.9414 125.473 71.0312 125.387 70.1797ZM140.012 79.7305C140.02 80.3789 140.113 80.8828 140.293 81.2422C140.473 81.6016 140.684 81.8711 140.926 82.0508C141.176 82.2227 141.426 82.3281 141.676 82.3672C141.934 82.3984 142.145 82.4141 142.309 82.4141H142.73V86H142.18C141.719 86 141.238 85.9414 140.738 85.8242C140.238 85.707 139.773 85.5 139.344 85.2031C138.922 84.9062 138.566 84.5 138.277 83.9844C137.988 83.4688 137.824 82.8125 137.785 82.0156C137.738 81.1719 137.688 80.2969 137.633 79.3906C137.578 78.4766 137.512 77.5156 137.434 76.5078C137.363 75.5 137.273 74.4336 137.164 73.3086C137.055 72.1836 136.918 70.9805 136.754 69.6992C136.809 69.6367 136.906 69.5391 137.047 69.4062C137.195 69.2656 137.363 69.1172 137.551 68.9609C137.738 68.7969 137.934 68.6328 138.137 68.4688C138.348 68.3047 138.539 68.1602 138.711 68.0352C138.891 67.9102 139.039 67.8203 139.156 67.7656C139.281 67.7031 139.355 67.6953 139.379 67.7422C139.402 67.7969 139.434 67.9883 139.473 68.3164C139.52 68.6367 139.562 69.0664 139.602 69.6055C139.648 70.1445 139.691 70.7812 139.73 71.5156C139.777 72.2422 139.82 73.043 139.859 73.918C139.898 74.7852 139.93 75.7109 139.953 76.6953C139.984 77.6719 140.004 78.6836 140.012 79.7305ZM146.363 75.2422C146.41 75.25 146.508 75.3789 146.656 75.6289C146.805 75.8789 146.965 76.207 147.137 76.6133C147.316 77.0117 147.488 77.4727 147.652 77.9961C147.816 78.5117 147.941 79.0508 148.027 79.6133C148.121 80.168 148.156 80.7227 148.133 81.2773C148.109 81.832 147.992 82.3477 147.781 82.8242C147.641 83.1445 147.449 83.4922 147.207 83.8672C146.965 84.2344 146.648 84.5781 146.258 84.8984C145.875 85.2109 145.406 85.4727 144.852 85.6836C144.297 85.8945 143.641 86 142.883 86H142.473V82.4141H142.789C142.859 82.4141 142.988 82.4102 143.176 82.4023C143.371 82.3945 143.59 82.3828 143.832 82.3672C144.082 82.3438 144.34 82.3164 144.605 82.2852C144.879 82.2539 145.125 82.2148 145.344 82.168C145.57 82.1133 145.754 82.0547 145.895 81.9922C146.043 81.9219 146.117 81.8438 146.117 81.7578C146.117 81.6484 146.07 81.4883 145.977 81.2773C145.883 81.0664 145.762 80.832 145.613 80.5742C145.473 80.3086 145.316 80.0352 145.145 79.7539C144.973 79.4727 144.801 79.207 144.629 78.957C144.465 78.6992 144.316 78.4727 144.184 78.2773C144.051 78.082 143.953 77.9375 143.891 77.8438C144.281 77.3359 144.641 76.8906 144.969 76.5078C145.109 76.3438 145.25 76.1836 145.391 76.0273C145.531 75.8711 145.664 75.7344 145.789 75.6172C145.914 75.5 146.027 75.4062 146.129 75.3359C146.23 75.2656 146.309 75.2344 146.363 75.2422ZM140.668 84.2188C140.668 83.9688 140.715 83.7344 140.809 83.5156C140.902 83.2969 141.031 83.1055 141.195 82.9414C141.352 82.7773 141.539 82.6484 141.758 82.5547C141.969 82.4609 142.199 82.4141 142.449 82.4141C142.699 82.4141 142.934 82.4609 143.152 82.5547C143.371 82.6484 143.562 82.7773 143.727 82.9414C143.891 83.1055 144.02 83.2969 144.113 83.5156C144.207 83.7344 144.254 83.9688 144.254 84.2188C144.254 84.4688 144.207 84.7031 144.113 84.9219C144.02 85.1328 143.891 85.3203 143.727 85.4844C143.562 85.6406 143.371 85.7656 143.152 85.8594C142.934 85.9531 142.699 86 142.449 86C142.199 86 141.969 85.9531 141.758 85.8594C141.539 85.7656 141.352 85.6406 141.195 85.4844C141.031 85.3203 140.902 85.1328 140.809 84.9219C140.715 84.7031 140.668 84.4688 140.668 84.2188ZM143.598 90.4062L145.566 88.4258L147.535 90.4062L145.566 92.375L143.598 90.4062ZM155.809 70.1797C156.184 69.8594 156.543 69.5586 156.887 69.2773C157.035 69.1602 157.184 69.043 157.332 68.9258C157.48 68.8008 157.625 68.6836 157.766 68.5742C157.906 68.4648 158.035 68.3672 158.152 68.2812C158.277 68.1875 158.383 68.1133 158.469 68.0586C158.609 67.9492 158.691 67.9492 158.715 68.0586C158.793 68.7695 158.855 69.5859 158.902 70.5078C158.957 71.4219 158.996 72.3828 159.02 73.3906C159.051 74.3906 159.066 75.4023 159.066 76.4258C159.066 77.4414 159.051 78.4023 159.02 79.3086C158.996 80.2148 158.957 81.0352 158.902 81.7695C158.848 82.5039 158.781 83.082 158.703 83.5039C158.633 83.668 158.551 83.8477 158.457 84.043C158.371 84.207 158.27 84.3984 158.152 84.6172C158.035 84.8281 157.902 85.0547 157.754 85.2969C157.613 85.5156 157.477 85.7148 157.344 85.8945C157.211 86.0742 157.09 86.2188 156.98 86.3281C156.879 86.4375 156.793 86.5 156.723 86.5156C156.66 86.5391 156.629 86.4922 156.629 86.375C156.613 85.8047 156.594 85.125 156.57 84.3359C156.547 83.5469 156.52 82.6953 156.488 81.7812C156.457 80.8672 156.418 79.9062 156.371 78.8984C156.332 77.8906 156.285 76.8828 156.23 75.875C156.176 74.8672 156.113 73.8789 156.043 72.9102C155.973 71.9414 155.895 71.0312 155.809 70.1797ZM171.699 82.3555C171.824 82.3945 171.922 82.4141 171.992 82.4141C172.07 82.4141 172.176 82.4141 172.309 82.4141H172.402V86H172.25C171.758 86 171.336 85.9102 170.984 85.7305C170.633 85.543 170.336 85.3164 170.094 85.0508C169.852 84.7773 169.656 84.4883 169.508 84.1836C169.359 83.8789 169.242 83.6094 169.156 83.375C169.086 83.7266 168.961 84.0625 168.781 84.3828C168.609 84.6953 168.367 84.9727 168.055 85.2148C167.75 85.4492 167.363 85.6367 166.895 85.7773C166.434 85.918 165.879 85.9883 165.23 85.9883C164.543 85.9883 163.969 85.875 163.508 85.6484C163.047 85.4219 162.676 85.1406 162.395 84.8047C162.121 84.4688 161.918 84.1055 161.785 83.7148C161.66 83.3164 161.586 82.9492 161.562 82.6133C161.539 82.2773 161.547 81.9961 161.586 81.7695C161.633 81.543 161.691 81.4297 161.762 81.4297C161.848 81.4297 161.918 81.4531 161.973 81.5C162.027 81.5469 162.094 81.6055 162.172 81.6758C162.25 81.7461 162.352 81.8242 162.477 81.9102C162.602 81.9961 162.773 82.0742 162.992 82.1445C163.219 82.2148 163.508 82.2734 163.859 82.3203C164.219 82.3672 164.668 82.3906 165.207 82.3906C165.559 82.3906 165.91 82.3594 166.262 82.2969C166.613 82.2266 166.93 82.1445 167.211 82.0508C167.492 81.957 167.719 81.8594 167.891 81.7578C168.07 81.6562 168.16 81.5703 168.16 81.5C168.16 81.4141 168.121 81.2617 168.043 81.043C167.973 80.8242 167.875 80.5664 167.75 80.2695C167.625 79.9727 167.484 79.6484 167.328 79.2969C167.172 78.9375 167.012 78.582 166.848 78.2305C166.465 77.4023 166.031 76.4844 165.547 75.4766C165.922 74.9922 166.262 74.5625 166.566 74.1875C166.691 74.0312 166.816 73.8789 166.941 73.7305C167.066 73.582 167.18 73.4531 167.281 73.3438C167.383 73.2266 167.465 73.1367 167.527 73.0742C167.598 73.0117 167.641 72.9883 167.656 73.0039C167.75 73.1992 167.867 73.4844 168.008 73.8594C168.148 74.2344 168.301 74.6602 168.465 75.1367C168.637 75.6055 168.812 76.1094 168.992 76.6484C169.172 77.1797 169.348 77.707 169.52 78.2305C169.691 78.7461 169.855 79.2383 170.012 79.707C170.168 80.168 170.309 80.5625 170.434 80.8906C170.598 81.3359 170.793 81.6758 171.02 81.9102C171.246 82.1445 171.473 82.293 171.699 82.3555ZM179.527 82.4141V86H179.035C178.621 86 178.254 85.9375 177.934 85.8125C177.613 85.6875 177.332 85.5273 177.09 85.332C176.855 85.1367 176.66 84.9258 176.504 84.6992C176.348 84.4648 176.23 84.2461 176.152 84.043C176.059 84.3008 175.922 84.5469 175.742 84.7812C175.57 85.0156 175.359 85.2227 175.109 85.4023C174.867 85.582 174.586 85.7266 174.266 85.8359C173.953 85.9453 173.613 86 173.246 86H172.273V82.4141H173.152C173.691 82.4141 174.086 82.3242 174.336 82.1445C174.594 81.957 174.762 81.6797 174.84 81.3125C174.926 80.9453 174.949 80.4883 174.91 79.9414C174.871 79.3867 174.824 78.7422 174.77 78.0078C174.746 77.7422 174.719 77.4258 174.688 77.0586C174.664 76.6914 174.633 76.2969 174.594 75.875C174.562 75.4531 174.527 75.0156 174.488 74.5625C174.449 74.1094 174.414 73.6641 174.383 73.2266C174.297 72.2109 174.211 71.1406 174.125 70.0156C174.164 69.9609 174.254 69.8711 174.395 69.7461C174.543 69.6211 174.711 69.4844 174.898 69.3359C175.086 69.1797 175.285 69.0234 175.496 68.8672C175.715 68.7031 175.914 68.5625 176.094 68.4453C176.273 68.3281 176.426 68.2422 176.551 68.1875C176.684 68.125 176.758 68.1172 176.773 68.1641C176.773 68.1797 176.777 68.3086 176.785 68.5508C176.801 68.793 176.816 69.1211 176.832 69.5352C176.855 69.9492 176.879 70.4297 176.902 70.9766C176.926 71.5156 176.949 72.0938 176.973 72.7109C177.004 73.3203 177.031 73.9492 177.055 74.5977C177.086 75.2383 177.113 75.8672 177.137 76.4844C177.16 77.1016 177.184 77.6875 177.207 78.2422C177.23 78.7891 177.25 79.2734 177.266 79.6953C177.281 80.1094 177.328 80.4844 177.406 80.8203C177.484 81.1562 177.598 81.4414 177.746 81.6758C177.902 81.9102 178.094 82.0938 178.32 82.2266C178.547 82.3516 178.82 82.4141 179.141 82.4141H179.527ZM170.492 84.2188C170.492 83.9688 170.539 83.7344 170.633 83.5156C170.727 83.2969 170.855 83.1055 171.02 82.9414C171.176 82.7773 171.363 82.6484 171.582 82.5547C171.793 82.4609 172.023 82.4141 172.273 82.4141C172.523 82.4141 172.758 82.4609 172.977 82.5547C173.195 82.6484 173.387 82.7773 173.551 82.9414C173.715 83.1055 173.844 83.2969 173.938 83.5156C174.031 83.7344 174.078 83.9688 174.078 84.2188C174.078 84.4688 174.031 84.7031 173.938 84.9219C173.844 85.1328 173.715 85.3203 173.551 85.4844C173.387 85.6406 173.195 85.7656 172.977 85.8594C172.758 85.9531 172.523 86 172.273 86C172.023 86 171.793 85.9531 171.582 85.8594C171.363 85.7656 171.176 85.6406 171.02 85.4844C170.855 85.3203 170.727 85.1328 170.633 84.9219C170.539 84.7031 170.492 84.4688 170.492 84.2188ZM183.734 75.2422C183.781 75.25 183.879 75.3789 184.027 75.6289C184.176 75.8789 184.336 76.207 184.508 76.6133C184.688 77.0117 184.859 77.4727 185.023 77.9961C185.188 78.5117 185.312 79.0508 185.398 79.6133C185.492 80.168 185.527 80.7227 185.504 81.2773C185.48 81.832 185.363 82.3477 185.152 82.8242C185.012 83.1445 184.793 83.4922 184.496 83.8672C184.199 84.2344 183.824 84.5781 183.371 84.8984C182.918 85.2109 182.387 85.4727 181.777 85.6836C181.168 85.8945 180.484 86 179.727 86H179.316V82.4141H179.633C179.703 82.4141 179.848 82.4102 180.066 82.4023C180.285 82.3945 180.535 82.3828 180.816 82.3672C181.105 82.3438 181.406 82.3164 181.719 82.2852C182.031 82.2539 182.316 82.2148 182.574 82.168C182.84 82.1133 183.059 82.0547 183.23 81.9922C183.402 81.9219 183.488 81.8438 183.488 81.7578C183.488 81.6484 183.441 81.4883 183.348 81.2773C183.254 81.0664 183.133 80.832 182.984 80.5742C182.844 80.3086 182.688 80.0352 182.516 79.7539C182.344 79.4727 182.172 79.207 182 78.957C181.836 78.6992 181.688 78.4727 181.555 78.2773C181.422 78.082 181.324 77.9375 181.262 77.8438C181.652 77.3359 182.012 76.8906 182.34 76.5078C182.48 76.3438 182.621 76.1836 182.762 76.0273C182.902 75.8711 183.035 75.7344 183.16 75.6172C183.285 75.5 183.398 75.4062 183.5 75.3359C183.602 75.2656 183.68 75.2344 183.734 75.2422ZM177.523 84.2188C177.523 83.9688 177.57 83.7344 177.664 83.5156C177.758 83.2969 177.887 83.1055 178.051 82.9414C178.207 82.7773 178.395 82.6484 178.613 82.5547C178.824 82.4609 179.055 82.4141 179.305 82.4141C179.555 82.4141 179.789 82.4609 180.008 82.5547C180.227 82.6484 180.418 82.7773 180.582 82.9414C180.746 83.1055 180.875 83.2969 180.969 83.5156C181.062 83.7344 181.109 83.9688 181.109 84.2188C181.109 84.4688 181.062 84.7031 180.969 84.9219C180.875 85.1328 180.746 85.3203 180.582 85.4844C180.418 85.6406 180.227 85.7656 180.008 85.8594C179.789 85.9531 179.555 86 179.305 86C179.055 86 178.824 85.9531 178.613 85.8594C178.395 85.7656 178.207 85.6406 178.051 85.4844C177.887 85.3203 177.758 85.1328 177.664 84.9219C177.57 84.7031 177.523 84.4688 177.523 84.2188ZM179.902 90.1719L181.73 88.3438L183.547 90.1719L181.73 91.9883L179.902 90.1719ZM183.043 90.1719L184.871 88.3438L186.688 90.1719L184.871 91.9883L183.043 90.1719Z" fill="white" fill-opacity="0.8"/>
    <defs>
        <filter id="filter0_d_2562_261" x="0.757812" y="0.453125" width="272.344" height="82.1875" filterUnits="userSpaceOnUse" color-interpolation-filters="sRGB">
            <feFlood flood-opacity="0" result="BackgroundImageFix"/>
            <feColorMatrix in="SourceAlpha" type="matrix" values="0 0 0 0 0 0 0 0 0 0 0 0 0 0 0 0 0 0 127 0" result="hardAlpha"/>
            <feOffset dy="4"/>
            <feGaussianBlur stdDeviation="10"/>
            <feComposite in2="hardAlpha" operator="out"/>
            <feColorMatrix type="matrix" values="0 0 0 0 1 0 0 0 0 1 0 0 0 0 1 0 0 0 0.3 0"/>
            <feBlend mode="normal" in2="BackgroundImageFix" result="effect1_dropShadow_2562_261"/>
            <feBlend mode="normal" in="SourceGraphic" in2="effect1_dropShadow_2562_261" result="shape"/>
        </filter>
    </defs>
</svg>
