<svg width="410" height="227" viewBox="0 0 410 227" fill="none" xmlns="http://www.w3.org/2000/svg">
    <g filter="url(#filter0_d_2602_334)">
        <path d="M152.174 146.84V157H150.979C149.141 157 147.592 156.779 146.33 156.336C145.068 155.893 144.028 155.296 143.209 154.543C142.412 153.79 141.803 152.927 141.383 151.953C140.962 150.957 140.686 149.928 140.553 148.865C140.11 149.419 139.689 149.917 139.291 150.359C138.959 150.736 138.627 151.101 138.295 151.455C137.963 151.809 137.742 152.042 137.631 152.152C137.564 152.219 137.354 152.274 137 152.318C136.646 152.363 136.203 152.407 135.672 152.451C135.163 152.473 134.598 152.484 133.979 152.484C133.381 152.484 132.783 152.473 132.186 152.451C131.61 152.429 131.068 152.396 130.559 152.352C130.072 152.307 129.673 152.241 129.363 152.152C128.434 151.953 127.604 151.333 126.873 150.293C126.165 149.23 125.622 147.969 125.246 146.508C124.87 145.047 124.693 143.497 124.715 141.859C124.737 140.221 125.025 138.716 125.578 137.344C125.777 136.901 126.143 136.381 126.674 135.783C127.205 135.163 127.847 134.521 128.6 133.857C129.352 133.171 130.171 132.485 131.057 131.799C131.964 131.09 132.861 130.404 133.746 129.74C134.632 129.076 135.484 128.456 136.303 127.881C137.122 127.305 137.83 126.807 138.428 126.387C138.383 126.188 138.35 125.911 138.328 125.557C138.306 125.202 138.273 124.848 138.229 124.494C138.184 124.096 138.151 123.653 138.129 123.166C138.262 123.033 138.505 122.823 138.859 122.535C139.214 122.225 139.623 121.893 140.088 121.539C140.553 121.163 141.04 120.786 141.549 120.41C142.058 120.034 142.523 119.702 142.943 119.414C143.386 119.104 143.74 118.872 144.006 118.717C144.294 118.54 144.449 118.484 144.471 118.551C144.559 119.237 144.637 120.1 144.703 121.141C144.792 122.159 144.869 123.277 144.936 124.494C145.002 125.689 145.068 126.94 145.135 128.246C145.201 129.552 145.257 130.825 145.301 132.064C145.367 133.282 145.423 134.433 145.467 135.518C145.511 136.602 145.566 137.532 145.633 138.307C145.766 140.232 146.02 141.76 146.396 142.889C146.773 143.995 147.227 144.837 147.758 145.412C148.311 145.988 148.92 146.364 149.584 146.541C150.248 146.718 150.934 146.818 151.643 146.84H152.174ZM128.135 140.598C128.179 141.24 128.411 141.782 128.832 142.225C129.253 142.645 129.795 142.988 130.459 143.254C131.145 143.497 131.909 143.686 132.75 143.818C133.591 143.929 134.432 143.995 135.273 144.018C136.137 144.018 136.967 143.995 137.764 143.951C138.583 143.885 139.302 143.807 139.922 143.719C139.767 142.634 139.645 141.627 139.557 140.697C139.468 139.768 139.391 138.893 139.324 138.074C139.28 137.233 139.225 136.436 139.158 135.684C139.114 134.909 139.048 134.134 138.959 133.359C137.653 133.935 136.347 134.566 135.041 135.252C133.735 135.938 132.551 136.624 131.488 137.311C130.448 137.997 129.607 138.639 128.965 139.236C128.345 139.812 128.068 140.266 128.135 140.598ZM146.23 151.953C146.23 151.245 146.363 150.581 146.629 149.961C146.895 149.341 147.26 148.799 147.725 148.334C148.167 147.869 148.699 147.504 149.318 147.238C149.916 146.973 150.569 146.84 151.277 146.84V146.807H177.508V157H151.277C150.569 157 149.916 156.867 149.318 156.602C148.699 156.336 148.167 155.982 147.725 155.539C147.26 155.074 146.895 154.543 146.629 153.945C146.363 153.326 146.23 152.661 146.23 151.953ZM171.598 151.953C171.598 151.245 171.73 150.581 171.996 149.961C172.262 149.341 172.627 148.799 173.092 148.334C173.535 147.869 174.066 147.504 174.686 147.238C175.283 146.973 175.936 146.84 176.645 146.84V146.807H202.875V157H176.645C175.936 157 175.283 156.867 174.686 156.602C174.066 156.336 173.535 155.982 173.092 155.539C172.627 155.074 172.262 154.543 171.996 153.945C171.73 153.326 171.598 152.661 171.598 151.953ZM196.965 151.953C196.965 151.245 197.098 150.581 197.363 149.961C197.629 149.341 197.994 148.799 198.459 148.334C198.902 147.869 199.433 147.504 200.053 147.238C200.65 146.973 201.303 146.84 202.012 146.84V146.807H228.242V157H202.012C201.303 157 200.65 156.867 200.053 156.602C199.433 156.336 198.902 155.982 198.459 155.539C197.994 155.074 197.629 154.543 197.363 153.945C197.098 153.326 196.965 152.661 196.965 151.953ZM240.096 126.52C240.229 126.542 240.505 126.907 240.926 127.615C241.346 128.324 241.8 129.253 242.287 130.404C242.796 131.533 243.283 132.839 243.748 134.322C244.213 135.783 244.567 137.311 244.811 138.904C245.076 140.476 245.176 142.048 245.109 143.619C245.043 145.191 244.711 146.652 244.113 148.002C243.715 148.91 243.095 149.895 242.254 150.957C241.413 151.997 240.35 152.971 239.066 153.879C237.783 154.764 236.277 155.506 234.551 156.104C232.824 156.701 230.887 157 228.74 157H227.578V146.84H228.475C228.674 146.84 229.083 146.829 229.703 146.807C230.323 146.785 231.031 146.751 231.828 146.707C232.647 146.641 233.499 146.563 234.385 146.475C235.27 146.386 236.078 146.275 236.809 146.143C237.561 145.988 238.181 145.822 238.668 145.645C239.155 145.445 239.398 145.224 239.398 144.98C239.398 144.671 239.266 144.217 239 143.619C238.734 143.021 238.391 142.357 237.971 141.627C237.572 140.874 237.13 140.1 236.643 139.303C236.156 138.506 235.669 137.753 235.182 137.045C234.717 136.314 234.296 135.673 233.92 135.119C233.544 134.566 233.267 134.156 233.09 133.891C234.197 132.452 235.215 131.19 236.145 130.105C236.543 129.641 236.941 129.187 237.34 128.744C237.738 128.301 238.115 127.914 238.469 127.582C238.823 127.25 239.144 126.984 239.432 126.785C239.719 126.586 239.941 126.497 240.096 126.52ZM222.498 151.953C222.498 151.245 222.631 150.581 222.896 149.961C223.162 149.341 223.527 148.799 223.992 148.334C224.435 147.869 224.966 147.504 225.586 147.238C226.184 146.973 226.837 146.84 227.545 146.84C228.253 146.84 228.917 146.973 229.537 147.238C230.157 147.504 230.699 147.869 231.164 148.334C231.629 148.799 231.994 149.341 232.26 149.961C232.525 150.581 232.658 151.245 232.658 151.953C232.658 152.661 232.525 153.326 232.26 153.945C231.994 154.543 231.629 155.074 231.164 155.539C230.699 155.982 230.157 156.336 229.537 156.602C228.917 156.867 228.253 157 227.545 157C226.837 157 226.184 156.867 225.586 156.602C224.966 156.336 224.435 155.982 223.992 155.539C223.527 155.074 223.162 154.543 222.896 153.945C222.631 153.326 222.498 152.661 222.498 151.953ZM229.238 168.82L234.418 163.641L239.564 168.82L234.418 173.967L229.238 168.82ZM238.137 168.82L243.316 163.641L248.463 168.82L243.316 173.967L238.137 168.82ZM282.031 146.674C282.385 146.785 282.662 146.84 282.861 146.84C283.083 146.84 283.382 146.84 283.758 146.84H284.023V157H283.592C282.197 157 281.002 156.745 280.006 156.236C279.01 155.705 278.169 155.063 277.482 154.311C276.796 153.536 276.243 152.717 275.822 151.854C275.402 150.99 275.07 150.227 274.826 149.562C274.627 150.559 274.273 151.51 273.764 152.418C273.277 153.303 272.59 154.089 271.705 154.775C270.842 155.439 269.746 155.971 268.418 156.369C267.112 156.768 265.54 156.967 263.703 156.967C261.755 156.967 260.128 156.646 258.822 156.004C257.516 155.362 256.465 154.565 255.668 153.613C254.893 152.661 254.318 151.632 253.941 150.525C253.587 149.396 253.377 148.356 253.311 147.404C253.244 146.452 253.266 145.656 253.377 145.014C253.51 144.372 253.676 144.051 253.875 144.051C254.118 144.051 254.318 144.117 254.473 144.25C254.628 144.383 254.816 144.549 255.037 144.748C255.258 144.947 255.546 145.169 255.9 145.412C256.255 145.656 256.742 145.877 257.361 146.076C258.003 146.275 258.822 146.441 259.818 146.574C260.837 146.707 262.109 146.773 263.637 146.773C264.633 146.773 265.629 146.685 266.625 146.508C267.621 146.309 268.518 146.076 269.314 145.811C270.111 145.545 270.753 145.268 271.24 144.98C271.749 144.693 272.004 144.449 272.004 144.25C272.004 144.007 271.893 143.575 271.672 142.955C271.473 142.335 271.196 141.605 270.842 140.764C270.488 139.923 270.089 139.004 269.646 138.008C269.204 136.99 268.75 135.982 268.285 134.986C267.201 132.64 265.972 130.039 264.6 127.184C265.662 125.811 266.625 124.594 267.488 123.531C267.842 123.089 268.197 122.657 268.551 122.236C268.905 121.816 269.226 121.451 269.514 121.141C269.801 120.809 270.034 120.554 270.211 120.377C270.41 120.2 270.532 120.133 270.576 120.178C270.842 120.731 271.174 121.539 271.572 122.602C271.971 123.664 272.402 124.87 272.867 126.221C273.354 127.549 273.852 128.977 274.361 130.504C274.87 132.009 275.368 133.503 275.855 134.986C276.342 136.447 276.807 137.842 277.25 139.17C277.693 140.476 278.091 141.594 278.445 142.523C278.91 143.785 279.464 144.748 280.105 145.412C280.747 146.076 281.389 146.497 282.031 146.674ZM294.914 125.822C295.888 126.199 297.061 126.663 298.434 127.217C299.806 127.77 301.256 128.412 302.783 129.143C304.333 129.851 305.893 130.659 307.465 131.566C309.036 132.452 310.497 133.426 311.848 134.488C313.22 135.551 314.426 136.702 315.467 137.941C316.507 139.181 317.249 140.52 317.691 141.959C318.156 143.376 318.267 144.892 318.023 146.508C317.802 148.102 317.105 149.795 315.932 151.588C314.98 153.027 313.928 154.133 312.777 154.908C311.648 155.661 310.497 156.181 309.324 156.469C308.151 156.734 306.989 156.823 305.838 156.734C304.709 156.646 303.658 156.491 302.684 156.27C301.732 156.026 300.902 155.76 300.193 155.473C299.485 155.185 298.987 154.986 298.699 154.875C298.035 155.251 297.305 155.572 296.508 155.838C295.711 156.104 294.87 156.325 293.984 156.502C293.121 156.679 292.236 156.812 291.328 156.9C290.421 156.967 289.546 157 288.705 157H283.525V146.84H286.381C286.469 146.84 286.691 146.84 287.045 146.84C287.421 146.84 287.842 146.829 288.307 146.807C287.842 145.346 287.576 144.018 287.51 142.822C287.443 141.605 287.499 140.509 287.676 139.535C287.853 138.561 288.118 137.709 288.473 136.979C288.827 136.226 289.181 135.595 289.535 135.086C289.911 134.555 290.255 134.134 290.564 133.824C290.896 133.514 291.118 133.293 291.229 133.16L289.236 132.396C289.369 132.197 289.568 131.887 289.834 131.467C290.122 131.046 290.443 130.592 290.797 130.105C291.151 129.596 291.516 129.076 291.893 128.545C292.269 127.992 292.612 127.505 292.922 127.084C293.232 126.641 293.497 126.287 293.719 126.021C293.962 125.734 294.106 125.59 294.15 125.59L294.914 125.822ZM302.418 143.486C302.684 142.712 302.794 141.915 302.75 141.096C302.728 140.255 302.573 139.48 302.285 138.771C302.02 138.041 301.643 137.41 301.156 136.879C300.669 136.326 300.094 135.938 299.43 135.717C298.234 135.318 297.139 135.219 296.143 135.418C295.146 135.617 294.272 135.982 293.52 136.514C292.789 137.045 292.191 137.665 291.727 138.373C291.284 139.081 291.018 139.745 290.93 140.365C290.863 140.83 290.985 141.361 291.295 141.959C291.605 142.535 292.059 143.11 292.656 143.686C293.254 144.261 293.973 144.803 294.814 145.312C295.656 145.799 296.563 146.176 297.537 146.441C298.467 146.397 299.242 146.231 299.861 145.943C300.503 145.633 301.012 145.29 301.389 144.914C301.831 144.493 302.174 144.018 302.418 143.486ZM313.143 149.098C313.895 148.257 314.294 147.438 314.338 146.641C314.404 145.844 314.238 145.091 313.84 144.383C313.441 143.652 312.877 142.977 312.146 142.357C311.438 141.715 310.697 141.151 309.922 140.664C309.147 140.155 308.395 139.712 307.664 139.336C306.934 138.96 306.369 138.672 305.971 138.473C306.081 138.871 306.126 139.336 306.104 139.867C306.104 140.376 306.059 140.919 305.971 141.494C305.904 142.048 305.794 142.612 305.639 143.188C305.484 143.763 305.329 144.327 305.174 144.881C304.775 146.165 304.288 147.493 303.713 148.865C304.908 149.264 306.026 149.551 307.066 149.729C308.129 149.906 309.07 149.994 309.889 149.994C310.708 149.972 311.394 149.883 311.947 149.729C312.523 149.551 312.921 149.341 313.143 149.098ZM278.479 151.953C278.479 151.245 278.611 150.581 278.877 149.961C279.143 149.341 279.508 148.799 279.973 148.334C280.415 147.869 280.947 147.504 281.566 147.238C282.164 146.973 282.817 146.84 283.525 146.84C284.234 146.84 284.898 146.973 285.518 147.238C286.137 147.504 286.68 147.869 287.145 148.334C287.609 148.799 287.975 149.341 288.24 149.961C288.506 150.581 288.639 151.245 288.639 151.953C288.639 152.661 288.506 153.326 288.24 153.945C287.975 154.543 287.609 155.074 287.145 155.539C286.68 155.982 286.137 156.336 285.518 156.602C284.898 156.867 284.234 157 283.525 157C282.817 157 282.164 156.867 281.566 156.602C280.947 156.336 280.415 155.982 279.973 155.539C279.508 155.074 279.143 154.543 278.877 153.945C278.611 153.326 278.479 152.661 278.479 151.953Z" fill="#FF7745"/>
        <path d="M368.592 146.84V157H367.396C365.559 157 364.01 156.779 362.748 156.336C361.486 155.893 360.446 155.296 359.627 154.543C358.83 153.79 358.221 152.927 357.801 151.953C357.38 150.957 357.104 149.928 356.971 148.865C356.528 149.419 356.107 149.917 355.709 150.359C355.377 150.736 355.045 151.101 354.713 151.455C354.381 151.809 354.16 152.042 354.049 152.152C353.982 152.219 353.772 152.274 353.418 152.318C353.064 152.363 352.621 152.407 352.09 152.451C351.581 152.473 351.016 152.484 350.396 152.484C349.799 152.484 349.201 152.473 348.604 152.451C348.028 152.429 347.486 152.396 346.977 152.352C346.49 152.307 346.091 152.241 345.781 152.152C344.852 151.953 344.021 151.333 343.291 150.293C342.583 149.23 342.04 147.969 341.664 146.508C341.288 145.047 341.111 143.497 341.133 141.859C341.155 140.221 341.443 138.716 341.996 137.344C342.195 136.901 342.561 136.381 343.092 135.783C343.623 135.163 344.265 134.521 345.018 133.857C345.77 133.171 346.589 132.485 347.475 131.799C348.382 131.09 349.279 130.404 350.164 129.74C351.049 129.076 351.902 128.456 352.721 127.881C353.54 127.305 354.248 126.807 354.846 126.387C354.801 126.188 354.768 125.911 354.746 125.557C354.724 125.202 354.691 124.848 354.646 124.494C354.602 124.096 354.569 123.653 354.547 123.166C354.68 123.033 354.923 122.823 355.277 122.535C355.632 122.225 356.041 121.893 356.506 121.539C356.971 121.163 357.458 120.786 357.967 120.41C358.476 120.034 358.941 119.702 359.361 119.414C359.804 119.104 360.158 118.872 360.424 118.717C360.712 118.54 360.867 118.484 360.889 118.551C360.977 119.237 361.055 120.1 361.121 121.141C361.21 122.159 361.287 123.277 361.354 124.494C361.42 125.689 361.486 126.94 361.553 128.246C361.619 129.552 361.674 130.825 361.719 132.064C361.785 133.282 361.84 134.433 361.885 135.518C361.929 136.602 361.984 137.532 362.051 138.307C362.184 140.232 362.438 141.76 362.814 142.889C363.191 143.995 363.645 144.837 364.176 145.412C364.729 145.988 365.338 146.364 366.002 146.541C366.666 146.718 367.352 146.818 368.061 146.84H368.592ZM344.553 140.598C344.597 141.24 344.829 141.782 345.25 142.225C345.671 142.645 346.213 142.988 346.877 143.254C347.563 143.497 348.327 143.686 349.168 143.818C350.009 143.929 350.85 143.995 351.691 144.018C352.555 144.018 353.385 143.995 354.182 143.951C355.001 143.885 355.72 143.807 356.34 143.719C356.185 142.634 356.063 141.627 355.975 140.697C355.886 139.768 355.809 138.893 355.742 138.074C355.698 137.233 355.643 136.436 355.576 135.684C355.532 134.909 355.465 134.134 355.377 133.359C354.071 133.935 352.765 134.566 351.459 135.252C350.153 135.938 348.969 136.624 347.906 137.311C346.866 137.997 346.025 138.639 345.383 139.236C344.763 139.812 344.486 140.266 344.553 140.598ZM380.412 126.52C380.545 126.542 380.822 126.907 381.242 127.615C381.663 128.324 382.117 129.253 382.604 130.404C383.113 131.533 383.6 132.839 384.064 134.322C384.529 135.783 384.883 137.311 385.127 138.904C385.393 140.476 385.492 142.048 385.426 143.619C385.359 145.191 385.027 146.652 384.43 148.002C384.031 148.91 383.411 149.895 382.57 150.957C381.729 151.997 380.667 152.971 379.383 153.879C378.099 154.764 376.594 155.506 374.867 156.104C373.141 156.701 371.204 157 369.057 157H367.895V146.84H368.791C368.99 146.84 369.4 146.829 370.02 146.807C370.639 146.785 371.348 146.751 372.145 146.707C372.964 146.641 373.816 146.563 374.701 146.475C375.587 146.386 376.395 146.275 377.125 146.143C377.878 145.988 378.497 145.822 378.984 145.645C379.471 145.445 379.715 145.224 379.715 144.98C379.715 144.671 379.582 144.217 379.316 143.619C379.051 143.021 378.708 142.357 378.287 141.627C377.889 140.874 377.446 140.1 376.959 139.303C376.472 138.506 375.985 137.753 375.498 137.045C375.033 136.314 374.613 135.673 374.236 135.119C373.86 134.566 373.583 134.156 373.406 133.891C374.513 132.452 375.531 131.19 376.461 130.105C376.859 129.641 377.258 129.187 377.656 128.744C378.055 128.301 378.431 127.914 378.785 127.582C379.139 127.25 379.46 126.984 379.748 126.785C380.036 126.586 380.257 126.497 380.412 126.52ZM362.814 151.953C362.814 151.245 362.947 150.581 363.213 149.961C363.479 149.341 363.844 148.799 364.309 148.334C364.751 147.869 365.283 147.504 365.902 147.238C366.5 146.973 367.153 146.84 367.861 146.84C368.57 146.84 369.234 146.973 369.854 147.238C370.473 147.504 371.016 147.869 371.48 148.334C371.945 148.799 372.311 149.341 372.576 149.961C372.842 150.581 372.975 151.245 372.975 151.953C372.975 152.661 372.842 153.326 372.576 153.945C372.311 154.543 371.945 155.074 371.48 155.539C371.016 155.982 370.473 156.336 369.854 156.602C369.234 156.867 368.57 157 367.861 157C367.153 157 366.5 156.867 365.902 156.602C365.283 156.336 364.751 155.982 364.309 155.539C363.844 155.074 363.479 154.543 363.213 153.945C362.947 153.326 362.814 152.661 362.814 151.953ZM369.555 168.82L374.734 163.641L379.881 168.82L374.734 173.967L369.555 168.82ZM378.453 168.82L383.633 163.641L388.779 168.82L383.633 173.967L378.453 168.82Z" fill="white"/>
    </g>
    <path d="M7.74805 97.4902L5.32422 72.7871V61.3652H15.418V72.7871L13.0273 97.4902H7.74805ZM15.7832 106.986C15.7832 107.761 15.6504 108.469 15.3848 109.111C15.1413 109.753 14.7871 110.307 14.3223 110.771C13.8574 111.236 13.304 111.602 12.6621 111.867C12.0202 112.111 11.3229 112.232 10.5703 112.232C9.79557 112.232 9.08724 112.111 8.44531 111.867C7.82552 111.602 7.2832 111.236 6.81836 110.771C6.37565 110.307 6.03255 109.753 5.78906 109.111C5.54557 108.469 5.42383 107.761 5.42383 106.986C5.42383 106.212 5.55664 105.503 5.82227 104.861C6.08789 104.219 6.44206 103.666 6.88477 103.201C7.34961 102.736 7.89193 102.371 8.51172 102.105C9.15365 101.84 9.86198 101.707 10.6367 101.707C11.3893 101.707 12.0755 101.84 12.6953 102.105C13.3372 102.371 13.8796 102.736 14.3223 103.201C14.7871 103.666 15.1413 104.219 15.3848 104.861C15.6504 105.503 15.7832 106.212 15.7832 106.986ZM50.0488 101.84V112H48.8535C47.0163 112 45.4668 111.779 44.2051 111.336C42.9434 110.893 41.903 110.296 41.084 109.543C40.2871 108.79 39.6784 107.927 39.2578 106.953C38.8372 105.957 38.5605 104.928 38.4277 103.865C37.985 104.419 37.5645 104.917 37.166 105.359C36.834 105.736 36.502 106.101 36.1699 106.455C35.8379 106.809 35.6165 107.042 35.5059 107.152C35.4395 107.219 35.2292 107.274 34.875 107.318C34.5208 107.363 34.0781 107.407 33.5469 107.451C33.0378 107.473 32.4733 107.484 31.8535 107.484C31.2559 107.484 30.6582 107.473 30.0605 107.451C29.485 107.429 28.9427 107.396 28.4336 107.352C27.9466 107.307 27.5482 107.241 27.2383 107.152C26.3086 106.953 25.4785 106.333 24.748 105.293C24.0397 104.23 23.4974 102.969 23.1211 101.508C22.7448 100.047 22.5677 98.4974 22.5898 96.8594C22.612 95.2214 22.8997 93.7161 23.4531 92.3438C23.6523 91.901 24.0176 91.3809 24.5488 90.7832C25.0801 90.1634 25.722 89.5215 26.4746 88.8574C27.2272 88.1712 28.0462 87.485 28.9316 86.7988C29.8392 86.0905 30.7357 85.4043 31.6211 84.7402C32.5065 84.0762 33.3587 83.4564 34.1777 82.8809C34.9967 82.3053 35.7051 81.8073 36.3027 81.3867C36.2585 81.1875 36.2253 80.9108 36.2031 80.5566C36.181 80.2025 36.1478 79.8483 36.1035 79.4941C36.0592 79.0957 36.026 78.653 36.0039 78.166C36.1367 78.0332 36.3802 77.8229 36.7344 77.5352C37.0885 77.2253 37.498 76.8932 37.9629 76.5391C38.4277 76.1628 38.9147 75.7865 39.4238 75.4102C39.9329 75.0339 40.3978 74.7018 40.8184 74.4141C41.2611 74.1042 41.6152 73.8717 41.8809 73.7168C42.1686 73.5397 42.3236 73.4844 42.3457 73.5508C42.4342 74.237 42.5117 75.1003 42.5781 76.1406C42.6667 77.1589 42.7441 78.2767 42.8105 79.4941C42.877 80.6895 42.9434 81.9401 43.0098 83.2461C43.0762 84.5521 43.1315 85.8249 43.1758 87.0645C43.2422 88.2819 43.2975 89.4329 43.3418 90.5176C43.3861 91.6022 43.4414 92.5319 43.5078 93.3066C43.6406 95.2324 43.8952 96.7598 44.2715 97.8887C44.6478 98.9954 45.1016 99.8366 45.6328 100.412C46.1862 100.988 46.7949 101.364 47.459 101.541C48.123 101.718 48.8092 101.818 49.5176 101.84H50.0488ZM26.0098 95.5977C26.054 96.2396 26.2865 96.7819 26.707 97.2246C27.1276 97.6452 27.6699 97.9883 28.334 98.2539C29.0202 98.4974 29.7839 98.6855 30.625 98.8184C31.4661 98.929 32.3073 98.9954 33.1484 99.0176C34.0117 99.0176 34.8418 98.9954 35.6387 98.9512C36.4577 98.8848 37.1771 98.8073 37.7969 98.7188C37.6419 97.6341 37.5202 96.627 37.4316 95.6973C37.3431 94.7676 37.2656 93.8932 37.1992 93.0742C37.1549 92.2331 37.0996 91.4362 37.0332 90.6836C36.9889 89.9089 36.9225 89.1341 36.834 88.3594C35.528 88.9349 34.222 89.5658 32.916 90.252C31.61 90.9382 30.4258 91.6243 29.3633 92.3105C28.3229 92.9967 27.4818 93.6387 26.8398 94.2363C26.2201 94.8118 25.9434 95.2656 26.0098 95.5977ZM62.3672 89.2559C62.8542 89.2559 63.2415 89.3887 63.5293 89.6543C63.8392 89.9199 64.0716 90.2409 64.2266 90.6172C64.3815 90.9714 64.4811 91.3477 64.5254 91.7461C64.5918 92.1224 64.625 92.4323 64.625 92.6758C64.625 94.3138 64.8242 95.7194 65.2227 96.8926C65.6211 98.0436 66.2077 98.9844 66.9824 99.7148C67.7793 100.445 68.7533 100.988 69.9043 101.342C71.0775 101.674 72.4167 101.84 73.9219 101.84H74.4531V112H73.8555C72.4609 112 71.1549 111.867 69.9375 111.602C68.7201 111.314 67.6133 110.926 66.6172 110.439C65.6432 109.952 64.791 109.377 64.0605 108.713C63.3301 108.027 62.7656 107.285 62.3672 106.488C61.5924 107.75 60.7181 108.746 59.7441 109.477C58.7923 110.207 57.8184 110.76 56.8223 111.137C55.8262 111.513 54.8411 111.757 53.8672 111.867C52.9154 111.956 52.0632 112 51.3105 112H49.4844V101.84H50.2812C51.4766 101.84 52.6497 101.674 53.8008 101.342C54.974 101.01 56.0254 100.479 56.9551 99.748C57.8848 99.0176 58.6263 98.0768 59.1797 96.9258C59.7552 95.7747 60.043 94.3691 60.043 92.709C60.043 92.4434 60.0762 92.1113 60.1426 91.7129C60.209 91.3145 60.3197 90.9382 60.4746 90.584C60.6517 90.2077 60.8841 89.8978 61.1719 89.6543C61.4818 89.3887 61.8802 89.2559 62.3672 89.2559ZM44.4043 106.953C44.4043 106.245 44.5371 105.581 44.8027 104.961C45.0684 104.341 45.4336 103.799 45.8984 103.334C46.3411 102.869 46.8724 102.504 47.4922 102.238C48.0898 101.973 48.7428 101.84 49.4512 101.84C50.1595 101.84 50.8236 101.973 51.4434 102.238C52.0632 102.504 52.6055 102.869 53.0703 103.334C53.5352 103.799 53.9004 104.341 54.166 104.961C54.4316 105.581 54.5645 106.245 54.5645 106.953C54.5645 107.661 54.4316 108.326 54.166 108.945C53.9004 109.543 53.5352 110.074 53.0703 110.539C52.6055 110.982 52.0632 111.336 51.4434 111.602C50.8236 111.867 50.1595 112 49.4512 112C48.7428 112 48.0898 111.867 47.4922 111.602C46.8724 111.336 46.3411 110.982 45.8984 110.539C45.4336 110.074 45.0684 109.543 44.8027 108.945C44.5371 108.326 44.4043 107.661 44.4043 106.953ZM53.1367 79.9922L58.3164 74.8125L63.4629 79.9922L58.3164 85.1387L53.1367 79.9922ZM62.0352 79.9922L67.2148 74.8125L72.3613 79.9922L67.2148 85.1387L62.0352 79.9922ZM78.1387 66.4785C78.2936 66.2793 78.5814 65.9915 79.002 65.6152C79.4447 65.2389 79.9427 64.8294 80.4961 64.3867C81.0716 63.9219 81.6582 63.4681 82.2559 63.0254C82.8535 62.5605 83.4069 62.1621 83.916 61.8301C84.4251 61.498 84.8457 61.2546 85.1777 61.0996C85.5098 60.9447 85.6758 60.9447 85.6758 61.0996C85.7201 62.5163 85.7754 64.1211 85.8418 65.9141C85.9303 67.6849 86.0078 69.5664 86.0742 71.5586C86.1628 73.5286 86.2402 75.5651 86.3066 77.668C86.3952 79.7708 86.4727 81.8626 86.5391 83.9434C86.6055 86.0241 86.6608 88.0495 86.7051 90.0195C86.7715 91.9674 86.8268 93.7936 86.8711 95.498C86.9154 98.3092 86.6276 100.755 86.0078 102.836C85.388 104.895 84.5469 106.61 83.4844 107.982C82.4219 109.333 81.1823 110.34 79.7656 111.004C78.349 111.668 76.8659 112 75.3164 112H73.9551L73.9883 101.84H74.4531C74.5859 101.84 74.7298 101.84 74.8848 101.84C75.0397 101.818 75.2057 101.796 75.3828 101.773C76.4896 101.618 77.3971 101.419 78.1055 101.176C78.8138 100.91 79.3672 100.567 79.7656 100.146C80.1641 99.7259 80.4297 99.1947 80.5625 98.5527C80.6953 97.8887 80.7507 97.0807 80.7285 96.1289C80.7285 95.1549 80.6621 94.0039 80.5293 92.6758C80.3965 91.3477 80.2637 89.7982 80.1309 88.0273C80.0202 86.3893 79.9095 84.9284 79.7988 83.6445C79.6882 82.3607 79.5775 81.1764 79.4668 80.0918C79.3783 78.985 79.2786 77.9336 79.168 76.9375C79.0794 75.9414 78.9798 74.9121 78.8691 73.8496C78.7585 72.7871 78.6367 71.6693 78.5039 70.4961C78.3932 69.3008 78.2715 67.9616 78.1387 66.4785ZM68.9082 106.953C68.9082 106.245 69.041 105.581 69.3066 104.961C69.5723 104.341 69.9375 103.799 70.4023 103.334C70.8451 102.869 71.3763 102.504 71.9961 102.238C72.5938 101.973 73.2467 101.84 73.9551 101.84C74.6634 101.84 75.3275 101.973 75.9473 102.238C76.5671 102.504 77.1094 102.869 77.5742 103.334C78.0391 103.799 78.4043 104.341 78.6699 104.961C78.9355 105.581 79.0684 106.245 79.0684 106.953C79.0684 107.661 78.9355 108.326 78.6699 108.945C78.4043 109.543 78.0391 110.074 77.5742 110.539C77.1094 110.982 76.5671 111.336 75.9473 111.602C75.3275 111.867 74.6634 112 73.9551 112C73.2467 112 72.5938 111.867 71.9961 111.602C71.3763 111.336 70.8451 110.982 70.4023 110.539C69.9375 110.074 69.5723 109.543 69.3066 108.945C69.041 108.326 68.9082 107.661 68.9082 106.953ZM106.859 94.2363C106.882 96.0736 107.147 97.5013 107.656 98.5195C108.165 99.5378 108.763 100.301 109.449 100.811C110.158 101.298 110.866 101.596 111.574 101.707C112.305 101.796 112.902 101.84 113.367 101.84H114.562V112H113.002C111.696 112 110.335 111.834 108.918 111.502C107.501 111.17 106.184 110.583 104.967 109.742C103.771 108.901 102.764 107.75 101.945 106.289C101.126 104.828 100.661 102.969 100.551 100.711C100.418 98.3203 100.274 95.8411 100.119 93.2734C99.9642 90.6836 99.776 87.9609 99.5547 85.1055C99.3555 82.25 99.1009 79.2285 98.791 76.041C98.4811 72.8535 98.0938 69.4447 97.6289 65.8145C97.7839 65.6374 98.0605 65.3607 98.459 64.9844C98.8796 64.5859 99.3555 64.1654 99.8867 63.7227C100.418 63.2578 100.971 62.793 101.547 62.3281C102.145 61.8633 102.687 61.4538 103.174 61.0996C103.683 60.7454 104.104 60.4909 104.436 60.3359C104.79 60.1589 105 60.1367 105.066 60.2695C105.133 60.4245 105.221 60.9668 105.332 61.8965C105.465 62.804 105.587 64.0215 105.697 65.5488C105.83 67.0762 105.952 68.8802 106.062 70.9609C106.195 73.0195 106.317 75.2884 106.428 77.7676C106.538 80.2246 106.627 82.8477 106.693 85.6367C106.782 88.4036 106.837 91.2702 106.859 94.2363ZM128.607 74.6133C130.245 74.6133 131.729 75.1003 133.057 76.0742C134.407 77.0482 135.558 78.3652 136.51 80.0254C137.462 81.6855 138.192 83.6113 138.701 85.8027C139.232 87.9941 139.498 90.2962 139.498 92.709C139.498 95.2546 139.21 97.5013 138.635 99.4492C138.059 101.397 137.262 103.09 136.244 104.529C135.248 105.946 134.086 107.141 132.758 108.115C131.43 109.067 130.002 109.831 128.475 110.406C126.969 110.982 125.409 111.391 123.793 111.635C122.199 111.878 120.628 112 119.078 112H113.6L113.566 101.84H118.979C121.17 101.84 123.107 101.74 124.789 101.541C126.493 101.342 127.965 101.043 129.205 100.645C130.467 100.246 131.518 99.7702 132.359 99.2168C133.201 98.6413 133.876 97.9883 134.385 97.2578C134.34 97.3021 134.197 97.4017 133.953 97.5566C133.732 97.6895 133.367 97.8444 132.857 98.0215C132.37 98.1764 131.74 98.3203 130.965 98.4531C130.19 98.5859 129.238 98.6634 128.109 98.6855C125.719 98.6855 123.804 98.3646 122.365 97.7227C120.926 97.0807 119.831 96.2174 119.078 95.1328C118.348 94.026 117.894 92.7533 117.717 91.3145C117.562 89.8535 117.562 88.3151 117.717 86.6992C117.85 85.2383 118.204 83.7884 118.779 82.3496C119.377 80.8887 120.141 79.5938 121.07 78.4648C122.022 77.3138 123.129 76.3841 124.391 75.6758C125.674 74.9674 127.08 74.6133 128.607 74.6133ZM128.209 90.4844C129.493 90.4844 130.544 90.429 131.363 90.3184C132.182 90.2077 132.835 90.0859 133.322 89.9531C133.809 89.8203 134.141 89.6986 134.318 89.5879C134.518 89.4772 134.617 89.4329 134.617 89.4551C134.507 89.0788 134.296 88.5143 133.986 87.7617C133.699 86.987 133.267 86.2122 132.691 85.4375C132.138 84.6628 131.43 83.9766 130.566 83.3789C129.703 82.7591 128.663 82.4271 127.445 82.3828C126.516 82.3607 125.652 82.4603 124.855 82.6816C124.081 82.8809 123.406 83.1908 122.83 83.6113C122.255 84.0098 121.801 84.4967 121.469 85.0723C121.159 85.6478 120.993 86.2786 120.971 86.9648C120.971 87.5846 121.203 88.1159 121.668 88.5586C122.155 89.0013 122.753 89.3665 123.461 89.6543C124.191 89.9421 124.977 90.1523 125.818 90.2852C126.682 90.418 127.479 90.4844 128.209 90.4844ZM108.553 106.953C108.553 106.245 108.686 105.581 108.951 104.961C109.217 104.341 109.582 103.799 110.047 103.334C110.49 102.869 111.021 102.504 111.641 102.238C112.238 101.973 112.891 101.84 113.6 101.84C114.308 101.84 114.972 101.973 115.592 102.238C116.212 102.504 116.754 102.869 117.219 103.334C117.684 103.799 118.049 104.341 118.314 104.961C118.58 105.581 118.713 106.245 118.713 106.953C118.713 107.661 118.58 108.326 118.314 108.945C118.049 109.543 117.684 110.074 117.219 110.539C116.754 110.982 116.212 111.336 115.592 111.602C114.972 111.867 114.308 112 113.6 112C112.891 112 112.238 111.867 111.641 111.602C111.021 111.336 110.49 110.982 110.047 110.539C109.582 110.074 109.217 109.543 108.951 108.945C108.686 108.326 108.553 107.661 108.553 106.953ZM123.062 65.9805L128.641 60.3691L134.219 65.9805L128.641 71.5586L123.062 65.9805ZM181.002 101.84C180.936 101.242 180.77 100.467 180.504 99.5156C180.238 98.5417 179.84 97.5898 179.309 96.6602C178.777 95.7305 178.08 94.9004 177.217 94.1699C176.376 93.4395 175.324 93.0078 174.062 92.875C173.952 92.8307 173.852 92.8086 173.764 92.8086C173.675 92.8086 173.576 92.8086 173.465 92.8086C172.668 92.8086 171.926 92.9746 171.24 93.3066C170.554 93.6387 169.956 94.0703 169.447 94.6016C168.938 95.1107 168.529 95.6973 168.219 96.3613C167.931 97.0033 167.787 97.6341 167.787 98.2539C167.787 99.1172 168.086 99.7923 168.684 100.279C169.281 100.766 170.1 101.132 171.141 101.375C172.203 101.596 173.443 101.729 174.859 101.773C176.276 101.818 177.803 101.84 179.441 101.84H181.002ZM175.557 84.375C177.106 84.375 178.434 84.6628 179.541 85.2383C180.648 85.8138 181.589 86.5775 182.363 87.5293C183.16 88.4811 183.813 89.5768 184.322 90.8164C184.831 92.0339 185.241 93.2956 185.551 94.6016C185.861 95.8854 186.093 97.1582 186.248 98.4199C186.403 99.6816 186.536 100.822 186.646 101.84H190.033V112H186.248C185.85 114.368 185.219 116.505 184.355 118.408C183.492 120.312 182.507 121.994 181.4 123.455C180.294 124.938 179.109 126.2 177.848 127.24C176.608 128.303 175.402 129.166 174.229 129.83C173.055 130.494 171.971 130.981 170.975 131.291C170.001 131.623 169.226 131.789 168.65 131.789H168.584C168.008 131.723 167.389 131.535 166.725 131.225C166.061 130.915 165.408 130.527 164.766 130.062C164.124 129.62 163.493 129.133 162.873 128.602C162.275 128.092 161.733 127.594 161.246 127.107C160.759 126.643 160.35 126.222 160.018 125.846C159.686 125.469 159.464 125.193 159.354 125.016C159.221 124.839 159.154 124.628 159.154 124.385C159.154 124.141 159.342 124.02 159.719 124.02H159.785C159.94 124.02 160.084 124.02 160.217 124.02C160.35 124.042 160.482 124.053 160.615 124.053C161.943 124.053 163.294 123.898 164.666 123.588C166.038 123.3 167.4 122.891 168.75 122.359C170.1 121.828 171.395 121.186 172.635 120.434C173.896 119.681 175.059 118.862 176.121 117.977C177.184 117.091 178.113 116.139 178.91 115.121C179.729 114.103 180.371 113.062 180.836 112H180.404C177.239 112 174.605 111.79 172.502 111.369C170.421 110.926 168.761 110.251 167.521 109.344C166.282 108.414 165.396 107.23 164.865 105.791C164.356 104.352 164.102 102.615 164.102 100.578C164.102 99.6927 164.212 98.6855 164.434 97.5566C164.655 96.4056 164.987 95.2324 165.43 94.0371C165.872 92.8418 166.415 91.6686 167.057 90.5176C167.699 89.3665 168.44 88.3372 169.281 87.4297C170.145 86.5221 171.096 85.7917 172.137 85.2383C173.177 84.6628 174.306 84.375 175.523 84.375H175.557ZM189.635 73.7832L194.814 68.6035L199.961 73.7832L194.814 78.9297L189.635 73.7832ZM198.533 73.7832L203.713 68.6035L208.859 73.7832L203.713 78.9297L198.533 73.7832ZM201.389 81.5195C201.521 81.5417 201.798 81.9069 202.219 82.6152C202.639 83.3236 203.093 84.2533 203.58 85.4043C204.089 86.5332 204.576 87.8392 205.041 89.3223C205.506 90.7832 205.86 92.3105 206.104 93.9043C206.369 95.4759 206.469 97.0475 206.402 98.6191C206.336 100.191 206.004 101.652 205.406 103.002C205.008 103.91 204.388 104.895 203.547 105.957C202.706 106.997 201.643 107.971 200.359 108.879C199.076 109.764 197.57 110.506 195.844 111.104C194.117 111.701 192.18 112 190.033 112H188.871V101.84H189.768C189.967 101.84 190.376 101.829 190.996 101.807C191.616 101.785 192.324 101.751 193.121 101.707C193.94 101.641 194.792 101.563 195.678 101.475C196.563 101.386 197.371 101.275 198.102 101.143C198.854 100.988 199.474 100.822 199.961 100.645C200.448 100.445 200.691 100.224 200.691 99.9805C200.691 99.6706 200.559 99.2168 200.293 98.6191C200.027 98.0215 199.684 97.3574 199.264 96.627C198.865 95.8743 198.423 95.0996 197.936 94.3027C197.449 93.5059 196.962 92.7533 196.475 92.0449C196.01 91.3145 195.589 90.6725 195.213 90.1191C194.837 89.5658 194.56 89.1562 194.383 88.8906C195.49 87.4518 196.508 86.1901 197.438 85.1055C197.836 84.6406 198.234 84.1868 198.633 83.7441C199.031 83.3014 199.408 82.9141 199.762 82.582C200.116 82.25 200.437 81.9844 200.725 81.7852C201.012 81.5859 201.234 81.4974 201.389 81.5195ZM183.791 106.953C183.791 106.245 183.924 105.581 184.189 104.961C184.455 104.341 184.82 103.799 185.285 103.334C185.728 102.869 186.259 102.504 186.879 102.238C187.477 101.973 188.13 101.84 188.838 101.84C189.546 101.84 190.21 101.973 190.83 102.238C191.45 102.504 191.992 102.869 192.457 103.334C192.922 103.799 193.287 104.341 193.553 104.961C193.818 105.581 193.951 106.245 193.951 106.953C193.951 107.661 193.818 108.326 193.553 108.945C193.287 109.543 192.922 110.074 192.457 110.539C191.992 110.982 191.45 111.336 190.83 111.602C190.21 111.867 189.546 112 188.838 112C188.13 112 187.477 111.867 186.879 111.602C186.259 111.336 185.728 110.982 185.285 110.539C184.82 110.074 184.455 109.543 184.189 108.945C183.924 108.326 183.791 107.661 183.791 106.953Z" fill="white"/>
    <path d="M147.949 204.18C148.324 203.859 148.684 203.559 149.027 203.277C149.176 203.16 149.324 203.043 149.473 202.926C149.621 202.801 149.766 202.684 149.906 202.574C150.047 202.465 150.176 202.367 150.293 202.281C150.418 202.188 150.523 202.113 150.609 202.059C150.75 201.949 150.832 201.949 150.855 202.059C150.934 202.77 150.996 203.586 151.043 204.508C151.098 205.422 151.137 206.383 151.16 207.391C151.191 208.391 151.207 209.402 151.207 210.426C151.207 211.441 151.191 212.402 151.16 213.309C151.137 214.215 151.098 215.035 151.043 215.77C150.988 216.504 150.922 217.082 150.844 217.504C150.773 217.668 150.691 217.848 150.598 218.043C150.512 218.207 150.41 218.398 150.293 218.617C150.176 218.828 150.043 219.055 149.895 219.297C149.754 219.516 149.617 219.715 149.484 219.895C149.352 220.074 149.23 220.219 149.121 220.328C149.02 220.438 148.934 220.5 148.863 220.516C148.801 220.539 148.77 220.492 148.77 220.375C148.754 219.805 148.734 219.125 148.711 218.336C148.688 217.547 148.66 216.695 148.629 215.781C148.598 214.867 148.559 213.906 148.512 212.898C148.473 211.891 148.426 210.883 148.371 209.875C148.316 208.867 148.254 207.879 148.184 206.91C148.113 205.941 148.035 205.031 147.949 204.18ZM156.422 212.852C156.453 212.852 156.52 212.941 156.621 213.121C156.73 213.293 156.863 213.512 157.02 213.777C157.176 214.043 157.359 214.328 157.57 214.633C157.781 214.938 158.008 215.223 158.25 215.488C158.492 215.754 158.75 215.977 159.023 216.156C159.297 216.328 159.578 216.414 159.867 216.414H160.125V220H159.926C159.645 220 159.398 219.98 159.188 219.941C158.977 219.902 158.793 219.855 158.637 219.801C158.48 219.738 158.348 219.676 158.238 219.613C158.129 219.543 158.031 219.477 157.945 219.414C157.914 220.109 157.785 220.777 157.559 221.418C157.34 222.066 157.059 222.672 156.715 223.234C156.379 223.797 155.996 224.309 155.566 224.77C155.137 225.23 154.695 225.625 154.242 225.953C153.789 226.281 153.34 226.535 152.895 226.715C152.457 226.895 152.055 226.984 151.688 226.984C151.5 226.977 151.246 226.887 150.926 226.715C150.613 226.551 150.297 226.348 149.977 226.105C149.656 225.863 149.359 225.613 149.086 225.355C148.812 225.098 148.621 224.875 148.512 224.688C148.434 224.547 148.426 224.441 148.488 224.371C148.551 224.301 148.637 224.266 148.746 224.266C149.52 224.266 150.242 224.172 150.914 223.984C151.586 223.797 152.199 223.551 152.754 223.246C153.309 222.949 153.801 222.613 154.23 222.238C154.668 221.863 155.031 221.492 155.32 221.125C155.609 220.758 155.82 220.41 155.953 220.082C156.094 219.762 156.148 219.5 156.117 219.297C156.094 219.156 156.016 218.934 155.883 218.629C155.75 218.316 155.59 217.984 155.402 217.633C155.223 217.281 155.035 216.934 154.84 216.59C154.652 216.246 154.488 215.961 154.348 215.734C154.488 215.477 154.66 215.184 154.863 214.855C155.074 214.52 155.281 214.203 155.484 213.906C155.688 213.609 155.875 213.359 156.047 213.156C156.219 212.953 156.344 212.852 156.422 212.852ZM154.277 209.148L156.246 207.168L158.215 209.148L156.246 211.117L154.277 209.148ZM163.793 209.242C163.84 209.25 163.938 209.379 164.086 209.629C164.234 209.879 164.395 210.207 164.566 210.613C164.746 211.012 164.918 211.473 165.082 211.996C165.246 212.512 165.371 213.051 165.457 213.613C165.551 214.168 165.586 214.723 165.562 215.277C165.539 215.832 165.422 216.348 165.211 216.824C165.07 217.145 164.879 217.492 164.637 217.867C164.395 218.234 164.078 218.578 163.688 218.898C163.305 219.211 162.836 219.473 162.281 219.684C161.727 219.895 161.07 220 160.312 220H159.902V216.414H160.219C160.289 216.414 160.418 216.41 160.605 216.402C160.801 216.395 161.02 216.383 161.262 216.367C161.512 216.344 161.77 216.316 162.035 216.285C162.309 216.254 162.555 216.215 162.773 216.168C163 216.113 163.184 216.055 163.324 215.992C163.473 215.922 163.547 215.844 163.547 215.758C163.547 215.648 163.5 215.488 163.406 215.277C163.312 215.066 163.191 214.832 163.043 214.574C162.902 214.309 162.746 214.035 162.574 213.754C162.402 213.473 162.23 213.207 162.059 212.957C161.895 212.699 161.746 212.473 161.613 212.277C161.48 212.082 161.383 211.938 161.32 211.844C161.711 211.336 162.07 210.891 162.398 210.508C162.539 210.344 162.68 210.184 162.82 210.027C162.961 209.871 163.094 209.734 163.219 209.617C163.344 209.5 163.457 209.406 163.559 209.336C163.66 209.266 163.738 209.234 163.793 209.242ZM158.098 218.219C158.098 217.969 158.145 217.734 158.238 217.516C158.332 217.297 158.461 217.105 158.625 216.941C158.781 216.777 158.969 216.648 159.188 216.555C159.398 216.461 159.629 216.414 159.879 216.414C160.129 216.414 160.363 216.461 160.582 216.555C160.801 216.648 160.992 216.777 161.156 216.941C161.32 217.105 161.449 217.297 161.543 217.516C161.637 217.734 161.684 217.969 161.684 218.219C161.684 218.469 161.637 218.703 161.543 218.922C161.449 219.133 161.32 219.32 161.156 219.484C160.992 219.641 160.801 219.766 160.582 219.859C160.363 219.953 160.129 220 159.879 220C159.629 220 159.398 219.953 159.188 219.859C158.969 219.766 158.781 219.641 158.625 219.484C158.461 219.32 158.332 219.133 158.238 218.922C158.145 218.703 158.098 218.469 158.098 218.219ZM161.32 206.113L163.289 204.133L165.258 206.113L163.289 208.082L161.32 206.113ZM177.762 201.918C177.801 202.027 177.84 202.297 177.879 202.727C177.926 203.156 177.965 203.691 177.996 204.332C178.035 204.965 178.07 205.68 178.102 206.477C178.133 207.266 178.16 208.082 178.184 208.926C178.215 209.762 178.234 210.594 178.242 211.422C178.258 212.25 178.266 213.02 178.266 213.73C178.266 214.691 178.145 215.523 177.902 216.227C177.668 216.922 177.359 217.512 176.977 217.996C176.602 218.48 176.18 218.871 175.711 219.168C175.25 219.465 174.793 219.699 174.34 219.871C173.887 220.043 173.465 220.16 173.074 220.223C172.691 220.293 172.391 220.336 172.172 220.352C171.992 220.367 171.801 220.379 171.598 220.387C171.395 220.402 171.191 220.41 170.988 220.41C170.543 220.41 170.098 220.391 169.652 220.352C169.215 220.32 168.82 220.27 168.469 220.199C168.117 220.129 167.832 220.039 167.613 219.93C167.395 219.82 167.285 219.691 167.285 219.543C167.285 219.402 167.367 219.281 167.531 219.18C167.695 219.078 167.914 218.984 168.188 218.898C168.461 218.812 168.777 218.727 169.137 218.641C169.504 218.555 169.883 218.457 170.273 218.348C170.664 218.238 171.059 218.113 171.457 217.973C171.855 217.824 172.23 217.645 172.582 217.434C172.371 216.926 172.102 216.332 171.773 215.652C171.445 214.965 171.094 214.254 170.719 213.52C170.352 212.777 169.977 212.039 169.594 211.305C169.211 210.562 168.855 209.879 168.527 209.254C168.199 208.629 167.914 208.094 167.672 207.648C167.43 207.195 167.266 206.887 167.18 206.723C167.203 206.668 167.266 206.551 167.367 206.371C167.469 206.184 167.59 205.969 167.73 205.727C167.871 205.484 168.02 205.23 168.176 204.965C168.34 204.699 168.496 204.457 168.645 204.238C168.801 204.02 168.938 203.84 169.055 203.699C169.18 203.551 169.273 203.477 169.336 203.477C169.383 203.477 169.469 203.602 169.594 203.852C169.719 204.102 169.875 204.445 170.062 204.883C170.258 205.312 170.473 205.82 170.707 206.406C170.941 206.992 171.188 207.621 171.445 208.293C171.703 208.957 171.965 209.652 172.23 210.379C172.504 211.105 172.766 211.824 173.016 212.535C173.273 213.246 173.516 213.938 173.742 214.609C173.977 215.273 174.184 215.883 174.363 216.438C175.012 216.086 175.473 215.707 175.746 215.301C176.02 214.895 176.164 214.496 176.18 214.105C176.188 213.895 176.176 213.594 176.145 213.203C176.113 212.805 176.066 212.355 176.004 211.855C175.941 211.355 175.867 210.824 175.781 210.262C175.703 209.691 175.621 209.125 175.535 208.562C175.332 207.25 175.098 205.824 174.832 204.285C174.879 204.238 174.973 204.145 175.113 204.004C175.254 203.863 175.418 203.707 175.605 203.535C175.801 203.355 176.008 203.172 176.227 202.984C176.445 202.789 176.652 202.613 176.848 202.457C177.051 202.293 177.23 202.16 177.387 202.059C177.551 201.949 177.668 201.895 177.738 201.895L177.762 201.918ZM181.395 204.18C181.77 203.859 182.129 203.559 182.473 203.277C182.621 203.16 182.77 203.043 182.918 202.926C183.066 202.801 183.211 202.684 183.352 202.574C183.492 202.465 183.621 202.367 183.738 202.281C183.863 202.188 183.969 202.113 184.055 202.059C184.195 201.949 184.277 201.949 184.301 202.059C184.379 202.77 184.441 203.586 184.488 204.508C184.543 205.422 184.582 206.383 184.605 207.391C184.637 208.391 184.652 209.402 184.652 210.426C184.652 211.441 184.637 212.402 184.605 213.309C184.582 214.215 184.543 215.035 184.488 215.77C184.434 216.504 184.367 217.082 184.289 217.504C184.219 217.668 184.137 217.848 184.043 218.043C183.957 218.207 183.855 218.398 183.738 218.617C183.621 218.828 183.488 219.055 183.34 219.297C183.199 219.516 183.062 219.715 182.93 219.895C182.797 220.074 182.676 220.219 182.566 220.328C182.465 220.438 182.379 220.5 182.309 220.516C182.246 220.539 182.215 220.492 182.215 220.375C182.199 219.805 182.18 219.125 182.156 218.336C182.133 217.547 182.105 216.695 182.074 215.781C182.043 214.867 182.004 213.906 181.957 212.898C181.918 211.891 181.871 210.883 181.816 209.875C181.762 208.867 181.699 207.879 181.629 206.91C181.559 205.941 181.48 205.031 181.395 204.18ZM196.02 213.73C196.027 214.379 196.121 214.883 196.301 215.242C196.48 215.602 196.691 215.871 196.934 216.051C197.184 216.223 197.434 216.328 197.684 216.367C197.941 216.398 198.152 216.414 198.316 216.414H198.738V220H198.188C197.727 220 197.246 219.941 196.746 219.824C196.246 219.707 195.781 219.5 195.352 219.203C194.93 218.906 194.574 218.5 194.285 217.984C193.996 217.469 193.832 216.812 193.793 216.016C193.746 215.172 193.695 214.297 193.641 213.391C193.586 212.477 193.52 211.516 193.441 210.508C193.371 209.5 193.281 208.434 193.172 207.309C193.062 206.184 192.926 204.98 192.762 203.699C192.816 203.637 192.914 203.539 193.055 203.406C193.203 203.266 193.371 203.117 193.559 202.961C193.746 202.797 193.941 202.633 194.145 202.469C194.355 202.305 194.547 202.16 194.719 202.035C194.898 201.91 195.047 201.82 195.164 201.766C195.289 201.703 195.363 201.695 195.387 201.742C195.41 201.797 195.441 201.988 195.48 202.316C195.527 202.637 195.57 203.066 195.609 203.605C195.656 204.145 195.699 204.781 195.738 205.516C195.785 206.242 195.828 207.043 195.867 207.918C195.906 208.785 195.938 209.711 195.961 210.695C195.992 211.672 196.012 212.684 196.02 213.73ZM202.371 209.242C202.418 209.25 202.516 209.379 202.664 209.629C202.812 209.879 202.973 210.207 203.145 210.613C203.324 211.012 203.496 211.473 203.66 211.996C203.824 212.512 203.949 213.051 204.035 213.613C204.129 214.168 204.164 214.723 204.141 215.277C204.117 215.832 204 216.348 203.789 216.824C203.648 217.145 203.457 217.492 203.215 217.867C202.973 218.234 202.656 218.578 202.266 218.898C201.883 219.211 201.414 219.473 200.859 219.684C200.305 219.895 199.648 220 198.891 220H198.48V216.414H198.797C198.867 216.414 198.996 216.41 199.184 216.402C199.379 216.395 199.598 216.383 199.84 216.367C200.09 216.344 200.348 216.316 200.613 216.285C200.887 216.254 201.133 216.215 201.352 216.168C201.578 216.113 201.762 216.055 201.902 215.992C202.051 215.922 202.125 215.844 202.125 215.758C202.125 215.648 202.078 215.488 201.984 215.277C201.891 215.066 201.77 214.832 201.621 214.574C201.48 214.309 201.324 214.035 201.152 213.754C200.98 213.473 200.809 213.207 200.637 212.957C200.473 212.699 200.324 212.473 200.191 212.277C200.059 212.082 199.961 211.938 199.898 211.844C200.289 211.336 200.648 210.891 200.977 210.508C201.117 210.344 201.258 210.184 201.398 210.027C201.539 209.871 201.672 209.734 201.797 209.617C201.922 209.5 202.035 209.406 202.137 209.336C202.238 209.266 202.316 209.234 202.371 209.242ZM196.676 218.219C196.676 217.969 196.723 217.734 196.816 217.516C196.91 217.297 197.039 217.105 197.203 216.941C197.359 216.777 197.547 216.648 197.766 216.555C197.977 216.461 198.207 216.414 198.457 216.414C198.707 216.414 198.941 216.461 199.16 216.555C199.379 216.648 199.57 216.777 199.734 216.941C199.898 217.105 200.027 217.297 200.121 217.516C200.215 217.734 200.262 217.969 200.262 218.219C200.262 218.469 200.215 218.703 200.121 218.922C200.027 219.133 199.898 219.32 199.734 219.484C199.57 219.641 199.379 219.766 199.16 219.859C198.941 219.953 198.707 220 198.457 220C198.207 220 197.977 219.953 197.766 219.859C197.547 219.766 197.359 219.641 197.203 219.484C197.039 219.32 196.91 219.133 196.816 218.922C196.723 218.703 196.676 218.469 196.676 218.219ZM199.605 224.406L201.574 222.426L203.543 224.406L201.574 226.375L199.605 224.406ZM211.816 204.18C212.191 203.859 212.551 203.559 212.895 203.277C213.043 203.16 213.191 203.043 213.34 202.926C213.488 202.801 213.633 202.684 213.773 202.574C213.914 202.465 214.043 202.367 214.16 202.281C214.285 202.188 214.391 202.113 214.477 202.059C214.617 201.949 214.699 201.949 214.723 202.059C214.801 202.77 214.863 203.586 214.91 204.508C214.965 205.422 215.004 206.383 215.027 207.391C215.059 208.391 215.074 209.402 215.074 210.426C215.074 211.441 215.059 212.402 215.027 213.309C215.004 214.215 214.965 215.035 214.91 215.77C214.855 216.504 214.789 217.082 214.711 217.504C214.641 217.668 214.559 217.848 214.465 218.043C214.379 218.207 214.277 218.398 214.16 218.617C214.043 218.828 213.91 219.055 213.762 219.297C213.621 219.516 213.484 219.715 213.352 219.895C213.219 220.074 213.098 220.219 212.988 220.328C212.887 220.438 212.801 220.5 212.73 220.516C212.668 220.539 212.637 220.492 212.637 220.375C212.621 219.805 212.602 219.125 212.578 218.336C212.555 217.547 212.527 216.695 212.496 215.781C212.465 214.867 212.426 213.906 212.379 212.898C212.34 211.891 212.293 210.883 212.238 209.875C212.184 208.867 212.121 207.879 212.051 206.91C211.98 205.941 211.902 205.031 211.816 204.18ZM227.707 216.355C227.832 216.395 227.93 216.414 228 216.414C228.078 216.414 228.184 216.414 228.316 216.414H228.41V220H228.258C227.766 220 227.344 219.91 226.992 219.73C226.641 219.543 226.344 219.316 226.102 219.051C225.859 218.777 225.664 218.488 225.516 218.184C225.367 217.879 225.25 217.609 225.164 217.375C225.094 217.727 224.969 218.062 224.789 218.383C224.617 218.695 224.375 218.973 224.062 219.215C223.758 219.449 223.371 219.637 222.902 219.777C222.441 219.918 221.887 219.988 221.238 219.988C220.551 219.988 219.977 219.875 219.516 219.648C219.055 219.422 218.684 219.141 218.402 218.805C218.129 218.469 217.926 218.105 217.793 217.715C217.668 217.316 217.594 216.949 217.57 216.613C217.547 216.277 217.555 215.996 217.594 215.77C217.641 215.543 217.699 215.43 217.77 215.43C217.855 215.43 217.926 215.453 217.98 215.5C218.035 215.547 218.102 215.605 218.18 215.676C218.258 215.746 218.359 215.824 218.484 215.91C218.609 215.996 218.781 216.074 219 216.145C219.227 216.215 219.516 216.273 219.867 216.32C220.227 216.367 220.676 216.391 221.215 216.391C221.566 216.391 221.918 216.359 222.27 216.297C222.621 216.227 222.938 216.145 223.219 216.051C223.5 215.957 223.727 215.859 223.898 215.758C224.078 215.656 224.168 215.57 224.168 215.5C224.168 215.414 224.129 215.262 224.051 215.043C223.98 214.824 223.883 214.566 223.758 214.27C223.633 213.973 223.492 213.648 223.336 213.297C223.18 212.938 223.02 212.582 222.855 212.23C222.473 211.402 222.039 210.484 221.555 209.477C221.93 208.992 222.27 208.562 222.574 208.188C222.699 208.031 222.824 207.879 222.949 207.73C223.074 207.582 223.188 207.453 223.289 207.344C223.391 207.227 223.473 207.137 223.535 207.074C223.605 207.012 223.648 206.988 223.664 207.004C223.758 207.199 223.875 207.484 224.016 207.859C224.156 208.234 224.309 208.66 224.473 209.137C224.645 209.605 224.82 210.109 225 210.648C225.18 211.18 225.355 211.707 225.527 212.23C225.699 212.746 225.863 213.238 226.02 213.707C226.176 214.168 226.316 214.562 226.441 214.891C226.605 215.336 226.801 215.676 227.027 215.91C227.254 216.145 227.48 216.293 227.707 216.355ZM235.535 216.414V220H235.043C234.629 220 234.262 219.938 233.941 219.812C233.621 219.688 233.34 219.527 233.098 219.332C232.863 219.137 232.668 218.926 232.512 218.699C232.355 218.465 232.238 218.246 232.16 218.043C232.066 218.301 231.93 218.547 231.75 218.781C231.578 219.016 231.367 219.223 231.117 219.402C230.875 219.582 230.594 219.727 230.273 219.836C229.961 219.945 229.621 220 229.254 220H228.281V216.414H229.16C229.699 216.414 230.094 216.324 230.344 216.145C230.602 215.957 230.77 215.68 230.848 215.312C230.934 214.945 230.957 214.488 230.918 213.941C230.879 213.387 230.832 212.742 230.777 212.008C230.754 211.742 230.727 211.426 230.695 211.059C230.672 210.691 230.641 210.297 230.602 209.875C230.57 209.453 230.535 209.016 230.496 208.562C230.457 208.109 230.422 207.664 230.391 207.227C230.305 206.211 230.219 205.141 230.133 204.016C230.172 203.961 230.262 203.871 230.402 203.746C230.551 203.621 230.719 203.484 230.906 203.336C231.094 203.18 231.293 203.023 231.504 202.867C231.723 202.703 231.922 202.562 232.102 202.445C232.281 202.328 232.434 202.242 232.559 202.188C232.691 202.125 232.766 202.117 232.781 202.164C232.781 202.18 232.785 202.309 232.793 202.551C232.809 202.793 232.824 203.121 232.84 203.535C232.863 203.949 232.887 204.43 232.91 204.977C232.934 205.516 232.957 206.094 232.98 206.711C233.012 207.32 233.039 207.949 233.062 208.598C233.094 209.238 233.121 209.867 233.145 210.484C233.168 211.102 233.191 211.688 233.215 212.242C233.238 212.789 233.258 213.273 233.273 213.695C233.289 214.109 233.336 214.484 233.414 214.82C233.492 215.156 233.605 215.441 233.754 215.676C233.91 215.91 234.102 216.094 234.328 216.227C234.555 216.352 234.828 216.414 235.148 216.414H235.535ZM226.5 218.219C226.5 217.969 226.547 217.734 226.641 217.516C226.734 217.297 226.863 217.105 227.027 216.941C227.184 216.777 227.371 216.648 227.59 216.555C227.801 216.461 228.031 216.414 228.281 216.414C228.531 216.414 228.766 216.461 228.984 216.555C229.203 216.648 229.395 216.777 229.559 216.941C229.723 217.105 229.852 217.297 229.945 217.516C230.039 217.734 230.086 217.969 230.086 218.219C230.086 218.469 230.039 218.703 229.945 218.922C229.852 219.133 229.723 219.32 229.559 219.484C229.395 219.641 229.203 219.766 228.984 219.859C228.766 219.953 228.531 220 228.281 220C228.031 220 227.801 219.953 227.59 219.859C227.371 219.766 227.184 219.641 227.027 219.484C226.863 219.32 226.734 219.133 226.641 218.922C226.547 218.703 226.5 218.469 226.5 218.219ZM239.742 209.242C239.789 209.25 239.887 209.379 240.035 209.629C240.184 209.879 240.344 210.207 240.516 210.613C240.695 211.012 240.867 211.473 241.031 211.996C241.195 212.512 241.32 213.051 241.406 213.613C241.5 214.168 241.535 214.723 241.512 215.277C241.488 215.832 241.371 216.348 241.16 216.824C241.02 217.145 240.801 217.492 240.504 217.867C240.207 218.234 239.832 218.578 239.379 218.898C238.926 219.211 238.395 219.473 237.785 219.684C237.176 219.895 236.492 220 235.734 220H235.324V216.414H235.641C235.711 216.414 235.855 216.41 236.074 216.402C236.293 216.395 236.543 216.383 236.824 216.367C237.113 216.344 237.414 216.316 237.727 216.285C238.039 216.254 238.324 216.215 238.582 216.168C238.848 216.113 239.066 216.055 239.238 215.992C239.41 215.922 239.496 215.844 239.496 215.758C239.496 215.648 239.449 215.488 239.355 215.277C239.262 215.066 239.141 214.832 238.992 214.574C238.852 214.309 238.695 214.035 238.523 213.754C238.352 213.473 238.18 213.207 238.008 212.957C237.844 212.699 237.695 212.473 237.562 212.277C237.43 212.082 237.332 211.938 237.27 211.844C237.66 211.336 238.02 210.891 238.348 210.508C238.488 210.344 238.629 210.184 238.77 210.027C238.91 209.871 239.043 209.734 239.168 209.617C239.293 209.5 239.406 209.406 239.508 209.336C239.609 209.266 239.688 209.234 239.742 209.242ZM233.531 218.219C233.531 217.969 233.578 217.734 233.672 217.516C233.766 217.297 233.895 217.105 234.059 216.941C234.215 216.777 234.402 216.648 234.621 216.555C234.832 216.461 235.062 216.414 235.312 216.414C235.562 216.414 235.797 216.461 236.016 216.555C236.234 216.648 236.426 216.777 236.59 216.941C236.754 217.105 236.883 217.297 236.977 217.516C237.07 217.734 237.117 217.969 237.117 218.219C237.117 218.469 237.07 218.703 236.977 218.922C236.883 219.133 236.754 219.32 236.59 219.484C236.426 219.641 236.234 219.766 236.016 219.859C235.797 219.953 235.562 220 235.312 220C235.062 220 234.832 219.953 234.621 219.859C234.402 219.766 234.215 219.641 234.059 219.484C233.895 219.32 233.766 219.133 233.672 218.922C233.578 218.703 233.531 218.469 233.531 218.219ZM235.91 224.172L237.738 222.344L239.555 224.172L237.738 225.988L235.91 224.172ZM239.051 224.172L240.879 222.344L242.695 224.172L240.879 225.988L239.051 224.172Z" fill="white" fill-opacity="0.7"/>
    <path d="M227.195 1.73828C222.437 1.73828 217.679 1.73828 212.921 1.73828C212.738 2.79982 212.738 4.03828 212.921 5.09982C216.032 5.09982 219.143 5.09982 222.071 5.09982L212.372 20.1383C212.189 21.0229 212.189 21.9075 212.372 22.7921C217.313 22.7921 222.254 22.7921 227.378 22.7921C227.561 21.7306 227.561 20.4921 227.378 19.4306C224.084 19.4306 220.79 19.4306 217.496 19.4306L227.195 4.39213C227.378 3.50751 227.378 2.6229 227.195 1.73828Z" fill="white"/>
    <path d="M193.89 7.93047L202.491 22.792C203.772 22.9689 205.053 22.9689 206.334 22.792C206.334 15.892 206.334 8.81508 206.334 1.91508C205.053 1.73816 203.772 1.73816 202.491 1.91508C202.491 6.16124 202.491 12.5305 202.491 16.5997L193.89 1.73816C192.609 1.56124 191.328 1.56124 190.047 1.73816C190.047 8.63816 190.047 15.7151 190.047 22.6151C191.328 22.792 192.609 22.792 193.89 22.6151C193.89 18.3689 193.89 11.9997 193.89 7.93047Z" fill="white"/>
    <path d="M149.055 22.792H151.434H158.571H162.048C162.231 21.5535 162.231 20.3151 162.048 19.0766H152.898V10.4074V7.04585V1.73816C151.617 1.56124 150.336 1.56124 149.055 1.73816V7.04585V10.4074V22.792Z" fill="white"/>
    <path d="M138.991 19.4306H134.416H132.769V13.7691H140.638C140.821 12.7075 140.821 11.646 140.638 10.5844H132.769V4.9229H134.416H139.906H142.102C142.285 3.86136 142.285 2.79982 142.102 1.73828H139.906H134.416H129.109V9.34597L130.939 12.3537L129.109 15.0075V22.6152H134.416H138.991H142.285C142.468 21.5537 142.468 20.4921 142.285 19.4306H138.991Z" fill="#FF7745"/>
    <path d="M250.253 22.2605C249.887 21.199 250.07 21.5529 249.704 20.4913C247.874 15.7144 245.312 6.69132 243.482 1.91439C243.299 1.91439 242.933 1.73747 242.75 1.73747C242.201 1.56055 241.652 1.56055 241.103 1.56055C240.554 1.56055 240.005 1.56055 239.456 1.73747C239.273 1.73747 238.907 1.91439 238.724 1.91439C236.894 6.69132 234.332 15.7144 232.502 20.4913C232.136 21.5529 232.319 21.199 231.953 22.2605C233.234 22.9682 234.698 22.9682 235.979 22.2605L237.26 18.7221L241.103 6.33747L245.129 19.4298L246.227 22.2605C247.691 22.9682 248.972 22.9682 250.253 22.2605Z" fill="white"/>
    <path d="M184.558 22.2605C184.192 21.199 184.375 21.5529 184.009 20.4913C182.179 15.7144 179.617 6.69132 177.787 1.91439C177.604 1.91439 177.238 1.73747 177.055 1.73747C176.506 1.56055 175.957 1.56055 175.408 1.56055C174.859 1.56055 174.31 1.56055 173.761 1.73747C173.578 1.73747 173.212 1.91439 173.029 1.91439C171.199 6.69132 168.637 15.7144 166.807 20.4913C166.441 21.5529 166.624 21.199 166.258 22.2605C167.539 22.9682 169.003 22.9682 170.284 22.2605L171.565 18.7221L175.408 6.33747L179.434 19.4298L180.532 22.2605C181.996 22.9682 183.277 22.9682 184.558 22.2605Z" fill="white"/>
    <defs>
        <filter id="filter0_d_2602_334" x="104.082" y="101.851" width="305.298" height="96.7156" filterUnits="userSpaceOnUse" color-interpolation-filters="sRGB">
            <feFlood flood-opacity="0" result="BackgroundImageFix"/>
            <feColorMatrix in="SourceAlpha" type="matrix" values="0 0 0 0 0 0 0 0 0 0 0 0 0 0 0 0 0 0 127 0" result="hardAlpha"/>
            <feOffset dy="4"/>
            <feGaussianBlur stdDeviation="10.3"/>
            <feComposite in2="hardAlpha" operator="out"/>
            <feColorMatrix type="matrix" values="0 0 0 0 1 0 0 0 0 1 0 0 0 0 1 0 0 0 0.25 0"/>
            <feBlend mode="normal" in2="BackgroundImageFix" result="effect1_dropShadow_2602_334"/>
            <feBlend mode="normal" in="SourceGraphic" in2="effect1_dropShadow_2602_334" result="shape"/>
        </filter>
    </defs>
</svg>
